<?xml version="1.0" standalone="no"?>
<!DOCTYPE svg PUBLIC "-//W3C//DTD SVG 1.1//EN" "http://www.w3.org/Graphics/SVG/1.1/DTD/svg11.dtd" >
<svg xmlns="http://www.w3.org/2000/svg" xmlns:xlink="http://www.w3.org/1999/xlink" version="1.1">
<metadata>
Created by FontForge 20170104 at Tue Sep 25 15:20:10 2018
 By Daniel Ho
</metadata>
<defs>
<font id="cnn-icons" horiz-adv-x="512" >
  <font-face 
    font-family="cnn-icons"
    font-weight="400"
    font-stretch="normal"
    units-per-em="512"
    panose-1="2 0 5 9 0 0 0 0 0 0"
    ascent="448"
    descent="-64"
    bbox="-7 -68 516 450"
    underline-thickness="25"
    underline-position="-76"
    unicode-range="U+F101-F17E"
  />
<missing-glyph 
d="M17 0v341h136v-341h-136zM34 17h102v307h-102v-307z" />
    <glyph glyph-name=".notdef" 
d="M17 0v341h136v-341h-136zM34 17h102v307h-102v-307z" />
    <glyph glyph-name=".null" horiz-adv-x="0" 
 />
    <glyph glyph-name="nonmarkingreturn" 
 />
    <glyph glyph-name="arrow-down" unicode="&#xf101;" 
d="M516 319l-255 -256l-257 256l30 30l227 -227l226 227z" />
    <glyph glyph-name="arrow-left" unicode="&#xf102;" 
d="M256 -64l-256 256l256 256l30 -30l-227 -226l226 -226z" />
    <glyph glyph-name="arrow-line-down" unicode="&#xf103;" 
d="M368 48l-112 -112l-112 112l31 32l59 -59v427h45v-426l58 58z" />
    <glyph glyph-name="arrow-line-up" unicode="&#xf104;" 
d="M144 336l112 112l112 -112l-31 -32l-59 59v-427h-45v426l-58 -58z" />
    <glyph glyph-name="arrow-navigate-left" unicode="&#xf105;" 
d="M224 448l63 -63l-116 -116h341v-89h-342l117 -117l-63 -63l-224 224z" />
    <glyph glyph-name="arrow-navigate-right" unicode="&#xf106;" 
d="M288 448l224 -224l-224 -224l-63 63l117 117h-342v89h341l-116 116z" />
    <glyph glyph-name="arrow-right" unicode="&#xf107;" 
d="M30 448l256 -256l-256 -256l-30 30l227 226l-227 226z" />
    <glyph glyph-name="arrow-up" unicode="&#xf108;" 
d="M0 93l256 256l256 -256l-30 -30l-226 227l-226 -226z" />
    <glyph glyph-name="checkmark" unicode="&#xf109;" 
d="M0 215l48 45l143 -138l274 261l47 -46l-321 -306z" />
    <glyph glyph-name="close" unicode="&#xf10a;" 
d="M367 346l-154 -154l154 -154l-30 -29l-154 153l-153 -153l-30 29l154 154l-154 154l30 29l153 -153l154 153z" />
    <glyph glyph-name="cnn-go" unicode="&#xf10b;" 
d="M0 401h260v-261h-260v261zM94 254q0 -3 -4 -3h-17q-8 0 -14 5.5t-6 13.5q0 5 1.5 8.5t4 6t6.5 4t8 1.5h15v12h-15q-13 0 -22 -9.5t-9 -22t9 -22t22 -9.5h29q3 0 3 3v58q0 5 5 7q5 1 8 -4l18 -32l18 -30q1 -3 3 -2q2 0 2 2v59q0 5 5 7q5 1 8 -4q0 -1 2 -4t6.5 -11t8.5 -15
l19 -32q2 -3 4 -2q1 0 1 2v76h-11v-45q-19 32 -20 34q-9 14 -21.5 11t-12.5 -17v-28q-19 32 -20 34q-9 14 -21.5 11t-12.5 -17v-46zM229 241v76h-11v-76q0 -5 -5 -7h-2q-4 0 -7 4q0 1 -19 33q-3 6 -7.5 13.5t-6.5 11.5t-3 4q-1 3 -3 2q-1 0 -1 -2v-59q0 -5 -5 -7q-6 -1 -9 4
q-4 7 -17 31q-4 6 -9 14.5t-7.5 12.5l-2.5 4q-1 3 -3 2q-2 0 -2 -2v-58q0 -7 -7 -7h-29q-15 0 -25.5 10.5t-10.5 25t10.5 25t25.5 10.5h15v11h-15q-20 0 -33.5 -13.5t-13.5 -33t13.5 -33t33.5 -13.5h29q19 0 19 18v27q18 -32 19 -34q9 -14 22 -11t13 17v28q19 -32 19 -34
q9 -14 22 -11t13 17zM394 241q-2 -11 -3.5 -16t-5 -12.5t-9 -11t-15 -6.5t-22.5 -3q-45 0 -43 31h35q0 -5 3 -8q2 -2 8 -2q12 0 15 17l3 9h-1q-8 -9 -22 -9q-17 0 -27 10t-10 26q0 22 12.5 38t32.5 16q21 0 28 -14l3 12h34zM336 268q0 -15 12 -15q11 0 15.5 9t4.5 18
q0 14 -13 14q-10 0 -14.5 -8t-4.5 -18zM467 320q45 0 45 -41q0 -22 -13.5 -39.5t-42.5 -17.5q-21 0 -34 11t-13 33q0 23 15 38.5t43 15.5zM457 248q5 0 9 3.5t6 8t3 9t1 8.5q0 17 -12 17q-9 0 -14 -10.5t-5 -20.5q0 -15 12 -15z" />
    <glyph glyph-name="cnn" unicode="&#xf10c;" 
d="M68 306.5q0 -20.5 15 -35.5t35 -15h45q8 0 8 8v117q0 22 15 35t36.5 8t35.5 -29l49 -85v71q0 22 15.5 35t36.5 8t35 -29l50 -85v114h28v-192q0 -5 -4 -6q-5 -1 -8 5l-7 12t-19 32.5t-22 38.5l-43 73q-8 14 -21 10q-12 -3 -12 -17v-148q0 -5 -4 -6q-5 -1 -9 5q-1 2 -44 77
q-44 76 -46 79q-8 14 -21 10q-13 -3 -13 -17v-145q0 -2 -2 -4.5t-5 -2.5h-74q-32 0 -55 23t-23 55.5t23 55.5t55 23h38v-29h-38q-20 0 -35 -14.5t-15 -35zM484 424h28v-193q0 -21 -15.5 -34t-36.5 -8.5t-35 28.5l-50 86v-72q0 -21 -15 -34t-36 -8.5t-36 28.5l-49 86v-68
q0 -22 -12.5 -34.5t-34.5 -12.5h-74q-49 0 -83.5 34.5t-34.5 83.5t34.5 83.5t83.5 34.5h38v-28h-38q-37 0 -63.5 -26.5t-26.5 -63.5t26.5 -63t63.5 -26h74q7 0 12.5 5.5t5.5 12.5v145q0 5 4 6q5 2 9 -5q3 -4 46 -79q44 -76 44 -77q8 -13 22 -10q12 4 12 17v148q0 5 4 6
q5 2 9 -5l6 -10.5t16.5 -29t19.5 -33.5q48 -82 48 -83q6 -10 17 -10h4q13 4 13 17v192z" />
    <glyph glyph-name="collection-player-info" unicode="&#xf10d;" 
d="M254 444q105 0 179.5 -74.5t74.5 -179.5t-74.5 -179.5t-179.5 -74.5t-179.5 74.5t-74.5 179.5t74.5 179.5t179.5 74.5zM254 -23q58 0 107 28.5t77.5 77.5t28.5 107q0 88 -62.5 150.5t-150.5 62.5t-150.5 -62.5t-62.5 -150.5t62.5 -150.5t150.5 -62.5zM223 31v222h61v-222
h-61zM215 330q0 16 11.5 27.5t27.5 11.5t27.5 -11.5t11.5 -27.5t-11.5 -27t-27.5 -11t-27.5 11t-11.5 27z" />
    <glyph glyph-name="collection-player-leftarrow" unicode="&#xf10e;" 
d="M256 448q106 0 181 -75t75 -181t-75 -181t-181 -75t-181 75t-75 181t75 181t181 75zM256 -23q89 0 152 63t63 152t-63 152t-152 63t-152 -63t-63 -152t63 -152t152 -63zM270 45l-147 147l147 147l29 -26l-121 -121l121 -119z" />
    <glyph glyph-name="collection-player-play" unicode="&#xf10f;" 
d="M223 448q61 0 112 -30t81 -81t30 -112q0 -92 -65.5 -157.5t-157.5 -65.5t-157.5 65.5t-65.5 157.5t65.5 157.5t157.5 65.5zM223 38q78 0 132.5 54.5t54.5 132.5q0 51 -25 94t-68 68t-94 25q-78 0 -132.5 -54.5t-54.5 -132.5t54.5 -132.5t132.5 -54.5zM275 -46.5
q0 7.5 5 13t12.5 5.5t12.5 -5.5t5 -13t-5 -12.5t-12.5 -5t-12.5 5t-5 12.5zM136 -46.5q0 7.5 5 13t12.5 5.5t12.5 -5.5t5 -13t-5 -12.5t-12.5 -5t-12.5 5t-5 12.5zM205 -46q0 5 2.5 9t6.5 6.5t9 2.5q7 0 12.5 -5.5t5.5 -12.5q0 -5 -2.5 -9t-6.5 -6.5t-9 -2.5q-7 0 -12.5 5
t-5.5 13zM164 130v184l159 -91z" />
    <glyph glyph-name="collection-player-rightarrow" unicode="&#xf110;" 
d="M0 192q0 106 75 181t181 75t181 -75t75 -181t-75 -181t-181 -75t-181 75t-75 181zM41 192q0 -89 63 -152t152 -63t152 63t63 152t-63 152t-152 63t-152 -63t-63 -152zM242 45l-29 28l121 119l-121 121l29 26l147 -147z" />
    <glyph glyph-name="collection-player-save" unicode="&#xf111;" 
d="M256 448q106 0 181 -75t75 -181t-75 -181t-181 -75t-181 75t-75 181t75 181t181 75zM256 -23q89 0 152 63t63 152t-63 152t-152 63t-152 -63t-63 -152t63 -152t152 -63zM256 360l37 -117h123l-99 -71l37 -117l-98 71l-98 -71l37 117l-99 71h123z" />
    <glyph glyph-name="collection-player-share" unicode="&#xf112;" 
d="M256 448q106 0 181 -75t75 -181t-75 -181t-181 -75t-181 75t-75 181t75 181t181 75zM256 -26q90 0 154 64t64 154t-64 154t-154 64t-154 -64t-64 -154t64 -154t154 -64zM154 258l102 103l102 -103l-29 -29l-53 54v-123h-41v123l-52 -54zM408 82h-304v69h41v-28h222v28h41
v-69v0z" />
    <glyph glyph-name="comment" unicode="&#xf113;" 
d="M447 416q18 0 33 -9t23.5 -24t8.5 -32v-157q0 -18 -8.5 -33t-23.5 -23.5t-33 -8.5h-6v-87l-146 87h-140q-27 0 -46 19t-19 46v157q0 17 8.5 32t23.5 24t33 9h292zM471 194v157q0 10 -7 17t-17 7h-292q-10 0 -17 -7t-7 -17v-157q0 -10 7 -17t17 -7h151l94 -56v56h47
q10 0 17 7t7 17zM112 40l94 56h90v-41h-79l-146 -87v87h-6q-27 0 -46 19t-19 46v157q0 27 19 46t46 19v-41q-10 0 -17 -7t-7 -17v-157q0 -10 7 -17t17 -7h47v-56z" />
    <glyph glyph-name="expand-close" unicode="&#xf114;" 
d="M-7 62l246 247h-79v43h153v-153h-43v80l-246 -247z" />
    <glyph glyph-name="expand-open" unicode="&#xf115;" 
d="M319 322l-246 -247h79v-43h-152v153h43v-80l246 247z" />
    <glyph glyph-name="follow" unicode="&#xf116;" 
d="M0 448h512v-512h-512v512zM470 -23v430h-428v-430h428zM242 67v105h-107v40h107v105h43v-105h107v-41h-107v-104h-43z" />
    <glyph glyph-name="games" unicode="&#xf117;" 
d="M157 285q0 -10 -6.5 -16.5t-16 -6.5t-16 6.5t-6.5 16t6.5 16t16.5 6.5q6 0 11 -3t8 -8t3 -11zM77 248q9 0 15.5 -6.5t6.5 -16t-6.5 -16t-15.5 -6.5t-16 6.5t-7 16t7 16t16 6.5zM193 248q6 0 11 -3t8 -8.5t3 -11.5q0 -9 -6.5 -15.5t-15.5 -6.5q-5 0 -9 2t-7 5t-5 7t-2 8
q0 10 6.5 16.5t16.5 6.5zM77 364q9 0 15.5 -7t6.5 -16q0 -6 -3 -11t-8 -8t-11 -3q-9 0 -16 6.5t-7 15.5t7 16t16 7zM192.5 321q-8.5 0 -14.5 6t-6 14.5t6 14.5t14.5 6t14.5 -6t6 -14.5t-6 -14.5t-14.5 -6zM377 260q-9 0 -15.5 6.5t-6.5 15.5t6.5 15.5t15.5 6.5t15.5 -6.5
t6.5 -15.5t-6.5 -15.5t-15.5 -6.5zM435 319q-9 0 -15.5 6.5t-6.5 15.5t6.5 16t15.5 7t15.5 -7t6.5 -16t-6.5 -15.5t-15.5 -6.5zM319 203q-9 0 -15.5 6.5t-6.5 16t6.5 16t15.5 6.5t15.5 -6.5t6.5 -16t-6.5 -16t-15.5 -6.5zM512 418v-269h-512v269h512zM27 176h215v215h-215
v-215zM485 391h-215v-215h215v215z" />
    <glyph glyph-name="home" unicode="&#xf118;" 
d="M256 424l256 -256v-64h-58v-144h-399v144h-55v64zM471 145v6l-215 215l-215 -215v-6h55v-144h98v151h118v-151h101v144h58z" />
    <glyph glyph-name="ireport" unicode="&#xf119;" 
d="M0 448h512v-512h-512v512zM471 -23v430h-430v-430h194v129h-57v64h129v-193h164zM226.5 256.5q-15.5 15.5 -15.5 37.5t15 38t38 16q22 0 38 -15.5t16 -38t-16 -38t-38 -15.5t-37.5 15.5z" />
    <glyph glyph-name="media-cc" unicode="&#xf11a;" 
d="M0 339h384v-294h-384v294zM181 159q4 9 5 19h-25q-2 -11 -8.5 -18.5t-18.5 -7.5q-8 0 -14.5 3.5t-10 9t-5.5 12.5t-2 14q0 8 2 15.5t5.5 13t9.5 9t15 3.5q5 0 9.5 -1.5t8 -4.5t5.5 -6.5t3 -8.5h25q-1 10 -5.5 18t-11.5 13.5t-15.5 8t-18.5 2.5q-13 0 -24 -4.5t-18.5 -13
t-11 -19.5t-3.5 -25q0 -12 3.5 -23.5t11 -19.5t18.5 -12.5t24 -4.5q11 0 20 3t16 9.5t11 15.5zM302 158.5q4 8.5 5 19.5h-24q-2 -11 -8.5 -18.5t-18.5 -7.5q-9 0 -15 3.5t-9.5 9t-5.5 12.5t-2 14q0 8 2 15.5t5.5 13t9.5 9t15 3.5q5 0 9 -1.5t8 -4.5q3 -3 6 -7q2 -3 3 -8h25
q-2 10 -6.5 18t-11 13.5t-15 8t-18.5 2.5q-13 0 -24 -4.5t-18.5 -13t-11.5 -19.5t-4 -25q0 -12 4 -23q4 -12 11.5 -20t18 -12.5t24.5 -4.5q11 0 20 3t15.5 9.5t10.5 15z" />
    <glyph glyph-name="media-end" unicode="&#xf11b;" 
d="M256 448q106 0 181 -75t75 -181q0 -69 -34.5 -128t-93.5 -93.5t-128 -34.5q-106 0 -181 75t-75 181t75 181t181 75zM256 -26q90 0 154 64t64 154t-64 154t-154 64t-154 -64t-64 -154t64 -154t154 -64zM107 110v164l142 -82zM380 274h38v-164h-38v76l-131 -76v82v82
l131 -76v76z" />
    <glyph glyph-name="media-fastforward" unicode="&#xf11c;" 
d="M256 448q106 0 181 -75t75 -181t-75 -181t-181 -75t-181 75t-75 181t75 181t181 75zM256 -26q90 0 154 64t64 154t-64 154t-154 64q-59 0 -109 -29.5t-79.5 -79.5t-29.5 -109q0 -90 64 -154t154 -64zM132 110v164l142 -82zM274 274l142 -82l-142 -82v82v82z" />
    <glyph glyph-name="media-fullscreen" unicode="&#xf11d;" 
d="M205 174l31 -32l-159 -161h49v-45h-126v127h45v-51zM307 210l-31 32l159 161h-49v45h126v-127h-45v51z" />
    <glyph glyph-name="media-minimize" unicode="&#xf11e;" 
d="M111 132v44h125v-125h-44v50l-160 -161l-32 32l160 160h-49zM512 416l-160 -159h49v-45h-125v126h44v-50l160 160z" />
    <glyph glyph-name="media-mute" unicode="&#xf11f;" 
d="M390 340l-45 -45q36 -50 36 -111q0 -80 -56 -137l-28 29q43 45 43 108q0 44 -24 82l-26 -26q15 -26 15 -56q0 -48 -34 -83l-28 28q22 23 22 55q0 12 -5 26l-40 -40v-106h-40l-33 33l-115 -115l-32 32l358 358zM220 275l-141 -141h-41v102h73l69 70h40v-31z" />
    <glyph glyph-name="media-pause" unicode="&#xf120;" 
d="M256 448q106 0 181 -75t75 -181t-75 -181t-181 -75t-181 75t-75 181t75 181t181 75zM256 -26q90 0 154 64t64 154t-64 154t-154 64t-154 -64t-64 -154t64 -154t154 -64zM169 273h70v-163h-70v163zM273 273h70v-163h-70v163z" />
    <glyph glyph-name="media-play" unicode="&#xf121;" 
d="M256 448q106 0 181 -75t75 -181t-75 -181t-181 -75t-181 75t-75 181t75 181t181 75zM256 -23q89 0 152 63t63 152t-63 152t-152 63t-152 -63t-63 -152t63 -152t152 -63zM176 64v259l224 -130z" />
    <glyph glyph-name="media-restart" unicode="&#xf122;" 
d="M512 226.5q0 -45.5 -18 -87.5q-17 -40 -47.5 -71t-71.5 -48q-41 -18 -87 -18v33q79 0 135 56t56 135t-56 135t-135 56t-135 -56q-49 -49 -55 -118h65l-81 -142l-82 142h65q3 36 17 70q17 40 48 71t71 48q42 18 87.5 18t86.5 -18q40 -17 71 -48t48 -71q18 -41 18 -86.5z
" />
    <glyph glyph-name="media-rewind" unicode="&#xf123;" 
d="M256 -64q-106 0 -181 75t-75 181t75 181t181 75t181 -75t75 -181t-75 -181t-181 -75zM256 410q-90 0 -154 -64t-64 -154t64 -154t154 -64t154 64t64 154q0 59 -29.5 109t-79.5 79.5t-109 29.5zM380 274v-164l-142 82zM238 110l-142 82l142 82v-82v-82z" />
    <glyph glyph-name="media-start" unicode="&#xf124;" 
d="M256 -64q-106 0 -181 75t-75 181t75 181t181 75t181 -75t75 -181t-75 -181t-181 -75zM256 410q-90 0 -154 -64t-64 -154t64 -154t154 -64t154 64t64 154t-64 154t-154 64zM405 274v-164l-142 82zM132 110h-38v164h38v-76l131 76v-82v-82l-131 76v-76z" />
    <glyph glyph-name="media-stop" unicode="&#xf125;" 
d="M256 448q106 0 181 -75t75 -181t-75 -181t-181 -75t-181 75t-75 181t75 181t181 75zM256 -26q90 0 154 64t64 154t-64 154t-154 64t-154 -64t-64 -154t64 -154t154 -64zM176 273h164v-164h-164v164z" />
    <glyph glyph-name="media-volume" unicode="&#xf126;" 
d="M73 240l69 70h41v-121v-122h-41l-69 70h-73v103h73zM287 326q57 -57 57 -139q0 -80 -56 -137l-28 29q44 45 44 108q0 65 -46 110zM233 272q35 -36 35 -85q0 -48 -34 -83l-28 29q21 23 21 54q0 33 -23 56z" />
    <glyph glyph-name="menu" unicode="&#xf127;" 
d="M-4 337h451v-52h-451v52zM-4 218h451v-52h-451v52zM-4 99h451v-52h-451v52z" />
    <glyph glyph-name="profile" unicode="&#xf128;" 
d="M258 215q-32 0 -55 23t-23 55t23 55t55.5 23t55 -23t22.5 -55q0 -21 -10.5 -39t-28.5 -28.5t-39 -10.5zM383 141v-128h-249v128q0 21 15 36t36 15h149q20 -1 34.5 -15.5t14.5 -35.5zM2 448h512v-512h-512v512zM473 -23v430h-430v-430h430z" />
    <glyph glyph-name="quote" unicode="&#xf129;" 
d="M1 226l149 222h61l-63 -205h79v-226h-226v209zM286 226l149 222h53l-55 -205h79v-226h-226v209z" />
    <glyph glyph-name="rss" unicode="&#xf12a;" 
d="M0 178v82q116 0 198.5 -82.5t82.5 -199.5h-82q0 83 -58 141.5t-141 58.5zM0 323v82q116 0 214 -57t155 -155.5t57 -214.5h-82q0 94 -46 173.5t-125.5 125.5t-172.5 46zM113 35q0 -15 -7.5 -28t-20.5 -21t-28 -8q-24 0 -40.5 17t-16.5 40.5t16.5 40t40 16.5t40 -16.5
t16.5 -40.5z" />
    <glyph glyph-name="search" unicode="&#xf12b;" 
d="M284 426q68 0 116 -48t48 -116t-48 -116t-116 -48q-51 0 -93 29l-149 -149l-42 42l149 149q-29 42 -29 93q0 68 48 116t116 48zM284 138q51 0 87.5 36.5t36.5 87.5t-36.5 87.5t-87.5 36.5t-87.5 -36.5t-36.5 -87.5t36.5 -87.5t87.5 -36.5z" />
    <glyph glyph-name="settings" unicode="&#xf12c;" 
d="M512 157l-77 -15q-6 -22 -17 -41l43 -66l-48 -48l-66 43q-19 -11 -41 -17l-15 -77h-70l-15 77q-22 6 -41 17l-66 -43l-48 48l43 66q-10 19 -16 41l-78 16v69l78 15q6 22 16 41l-43 66l48 48l66 -43q19 11 41 17l16 77h69l15 -77q22 -6 41 -17l66 43l48 -48l-43 -66
q11 -19 17 -41l77 -16v-69zM256 86q44 0 75.5 31t31.5 75t-31.5 75t-75.5 31t-75 -31t-31 -75t31 -75t75 -31z" />
    <glyph glyph-name="share-arrow" unicode="&#xf12d;" 
d="M384 48v67h34v-102h-418v435h418v-101h-34v66h-349v-365h349zM425 318l87 -88l-87 -87l-25 25l46 45h-237v35h236l-45 45z" />
    <glyph glyph-name="social-facebook" unicode="&#xf12e;" 
d="M174 -64h-94v234h-79v91h79v67q0 57 32 88.5t85 31.5q43 0 70 -4v-81h-48q-14 0 -23 -3t-13.5 -9.5t-6.5 -14t-2 -17.5v-58h90l-12 -91h-78v-234z" />
    <glyph glyph-name="social-googleplus" unicode="&#xf12f;" 
d="M512 333h-70v-70h-35v70h-69v35h69v69h35v-69h70v-35zM323 46q0 -45 -44.5 -79.5t-116.5 -34.5q-68 0 -115 25.5t-47 67.5q0 45 43 81.5t106 36.5q5 0 14 0.5t14 0.5q-22 21 -22 39q0 14 8 29h-15q-52 0 -83 32.5t-31 81.5q0 47 42 82.5t99 35.5h151l-34 -35h-40
q43 -24 43 -85q0 -46 -45 -81q-18 -15 -24 -23.5t-6 -21.5t45 -47q35 -26 46.5 -48t11.5 -57zM234 321q-3 27 -15 49t-29.5 35.5t-37.5 14.5q-31 1 -48.5 -26t-12.5 -67t30 -65.5t56 -26.5t47 22.5t10 63.5zM276 40q0 8 -2 16q-1 6 -5 12l-7 10.5t-11 10.5l-12 9t-15 10.5
t-16 10.5q-19 6 -39 6q-45 1 -78.5 -24t-33.5 -59q0 -35 30 -60t74 -25q115 0 115 83z" />
    <glyph glyph-name="social-instagram" unicode="&#xf130;" 
d="M392 404q36 0 61.5 -25t25.5 -61v-92v-183q0 -36 -25.5 -61t-61.5 -25h-275q-35 0 -60.5 25t-25.5 61v183v92q0 17 7 33t18.5 28t27.5 18.5t33 6.5h275zM417 353h-66v-76h76v66v10h-10zM191 226q-15 -20 -15 -45q0 -33 23 -56t55.5 -23t56 23t23.5 56q0 25 -15 45
q-24 33 -64 33t-64 -33zM435 43v183h-67q9 -22 9 -45q0 -51 -36 -87t-86.5 -36t-86.5 36t-36 87q0 23 9 45h-67v-183q0 -18 13 -30.5t30 -12.5h275q18 0 30.5 12.5t12.5 30.5z" />
    <glyph glyph-name="social-linkedin" unicode="&#xf131;" 
d="M85 0h-79v252h79v-252zM45 287q-18 0 -31.5 13t-13.5 32q0 12 6 22.5t16.5 17t22.5 6.5q19 0 32.5 -13.5t13.5 -32.5q0 -9 -3.5 -17.5t-10 -14.5t-14.5 -9.5t-18 -3.5zM378 0h-78v123q0 14 -1 23t-4.5 20.5t-12.5 17t-23 5.5q-19 0 -30 -10t-14 -22.5t-3 -31.5v-125h-78
v252h75v-34h1q9 16 28.5 28t45.5 12q55 0 74.5 -31t19.5 -89v-138z" />
    <glyph glyph-name="social-mail" unicode="&#xf132;" 
d="M254 126l-238 227h475zM510 47l-150 149l150 144v-293zM-2 340l149 -144l-149 -149v293zM254 94l90 87l150 -150h-480l150 150z" />
    <glyph glyph-name="social-more" unicode="&#xf133;" 
d="M192 207.5q0 26.5 19 45t45.5 18.5t45 -18.5t18.5 -45t-18.5 -45.5t-45.5 -19t-45.5 19t-18.5 45.5zM64 143q-27 0 -45.5 19t-18.5 45.5t18.5 45t45 18.5t45.5 -18.5t19 -45.5q0 -17 -8.5 -31.5t-23.5 -23.5t-32 -9zM448.5 143q-26.5 0 -45.5 19t-19 45.5t19 45
t45.5 18.5t45 -18.5t18.5 -45t-18.5 -45.5t-45 -19z" />
    <glyph glyph-name="social-pinterest" unicode="&#xf134;" 
d="M210 448q82 0 134 -50t52 -118q0 -88 -44 -145t-114 -57q-16 0 -30.5 5t-25.5 13.5t-16 18.5q-17 -68 -21 -81q-11 -42 -53 -96q-1 -2 -4 -1.5t-3 2.5q-9 69 1 112l38 160q-10 19 -10 47q0 32 16.5 54t40.5 22q19 0 29.5 -12.5t10.5 -31.5q0 -12 -4.5 -29t-11.5 -39.5
t-10 -36.5q-6 -23 8.5 -39.5t37.5 -16.5q41 0 67 45.5t26 110.5q0 50 -32 81.5t-90 31.5q-65 0 -105 -41.5t-40 -99.5q0 -35 20 -58q6 -7 4 -16q-1 -3 -3 -12t-3 -12q-3 -12 -15 -7q-29 12 -44.5 42.5t-15.5 69.5q0 33 13.5 64.5t39 58.5t66.5 44t91 17z" />
    <glyph glyph-name="social-reddit" unicode="&#xf135;" 
d="M366 213q2 -5 2 -10q0 -10 -6.5 -19t-16.5 -12v0q-5 -1 -10 -1q-11 0 -20 7q-10 7 -12 19v0v0v6q0 10 6 18.5t15 11.5v0q5 2 11 2q10 0 19 -6t12 -15v-1v0zM345.5 131q4.5 -3 6.5 -7q1 -3 1 -6v-4q-1 -4 -4 -7q-2 -2 -6 -5l-6 -3t-5 -3v0q-38 -18 -79 -18q-49 0 -86 25
q-4 2 -6 6t-2 8q0 5 3 9q2 4 7 6v0q3 2 6 2t6 -2q3 -1 6 -3q7 -5 9 -6v0q26 -13 57 -13q41 0 76 21q4 3 8 3t8.5 -3zM167 172h-1q-9 3 -15.5 12t-6.5 19q0 5 2 10v0q5 17 24 21v0q3 1 7 1q12 0 22 -9t10 -22v-2q0 -13 -10 -23q-10 -9 -22 -9q-5 0 -10 2zM512 253v-4
q0 -18 -11 -34q-9 -15 -24 -23q1 -8 1 -15q0 -41 -26 -74v0q-40 -54 -121 -75v0q-37 -9 -75 -9q-59 0 -111 21v0q-64 26 -93 74q-18 29 -18 63q0 7 1 15q-14 8 -24 22q-10 16 -11 33v1v0q0 25 19 45t44 20h1h5q14 0 25 -5v0q12 -5 20 -11q5 2 7 3q48 29 121 33q1 38 14 61
q13 26 40 33v0q10 2 20 2q25 0 52 -11q11 17 29 24h1q11 4 22 4q13 0 23 -5v0h1q16 -6 26 -21.5t10 -32.5v-7v0q-2 -22 -20 -38t-40 -16q-4 0 -7 1q-22 2 -38 18q-16 18 -16 40v1v1q-25 11 -43 11h-6q-18 -2 -26 -18v0q-8 -17 -9 -48q69 -4 119 -33h1q1 -1 3 -2q5 4 8 6
q17 11 37 11q9 0 18 -2v0v0q20 -6 35 -22q14 -16 16 -37v0zM390 388q0 -1 1 -2v0q0 -11 8.5 -19t18.5 -8v0h2q11 0 19.5 8t8.5 19v0v1q0 12 -8.5 20.5t-20.5 8.5q-3 0 -6 -1h-1q-9 -3 -15.5 -10.5t-6.5 -16.5zM86 277q-9 4 -17 4h-3v0q-12 0 -22 -9t-11 -22v0v-2q0 -7 4 -15
q3 -5 8 -9q13 29 41 53zM445 176q0 28 -17 52q-30 41 -90 60q-10 3 -20 5q-30 7 -62 7q-42 0 -82 -12q-60 -19 -90 -60q-17 -24 -17 -52q0 -11 3 -21q5 -21 21 -39q14 -17 35 -30q3 -2 8 -5q54 -30 122 -30q11 0 22 1q71 6 120 42q17 13 29 29q13 18 17 37v0q1 8 1 16z
M479 249q0 7 -3 13v0q-5 9 -14 14q-8 5 -19 5q-9 0 -17 -4q28 -24 41 -53q5 4 8 10q4 7 4 15z" />
    <glyph glyph-name="social-stumbleupon" unicode="&#xf136;" 
d="M283 255v31q0 11 -7.5 19t-19 8t-19.5 -8t-8 -19v-163q-1 -47 -34 -80t-80 -33t-80.5 33.5t-33.5 81.5v71h87v-70q0 -12 8 -20t19 -8t19 8t8 20v165q2 46 35 78t79.5 32t79.5 -32.5t34 -78.5v-36l-52 -16zM425 196h87v-71q0 -48 -33.5 -81.5t-80.5 -33.5t-80.5 33.5
t-34.5 80.5v71l35 -16l52 15v-72q0 -11 8 -19t19.5 -8t19.5 8t8 19v74z" />
    <glyph glyph-name="social-tumblr" unicode="&#xf137;" 
d="M270 35l24 -73q-7 -10 -34 -19.5t-54 -10.5q-40 0 -71 13t-48.5 34t-26 44t-8.5 46v167h-52v67q89 32 101 138q0 3 3 3h75v-130h103v-78h-103v-159q1 -52 49 -50q24 0 42 8z" />
    <glyph glyph-name="social-tvtag" unicode="&#xf138;" 
d="M506 315q5 -32 6 -65v-58q-1 -22 -3 -47q-4 -40 -15 -69q-10 -25 -33 -36q-26 -11 -55 -16q-27 -4 -52 -6q-16 -2 -43 -3q-6 0 -50 -1h-4l1 1l1 2q19 34 22 38q7 13 23 14q52 2 88 8q16 2 29 8q22 9 28 32q6 19 8 41q2 24 1 91q0 35 -5 57q-3 11 -8 24q-9 25 -49 30
q-34 4 -53 6q-19 1 -61 3q-21 1 -39 0q-24 0 -55 -2q-26 -1 -41 -3q-25 -3 -43 -8q-26 -6 -37 -29q-7 -17 -10 -42q-4 -32 -3 -70q0 -30 3 -60q2 -24 10 -45q5 -15 20 -23t34 -10q25 -4 59 -6q8 -1 30 -2q14 -1 20 -12q2 -4 24 -41l1 -2h-3q-55 1 -63 2q-21 1 -42 3
q-52 5 -80 15q-8 3 -21 9q-17 9 -26 28q-9 22 -14 51q-5 33 -6 65v58q1 20 3 47q4 41 16 71q9 23 32 33q26 12 55 17q28 4 51 6q21 2 43 3q54 1 83 1q25 0 60 -3q26 -2 56 -6q38 -5 66 -19q19 -10 27 -30q9 -21 14 -50z" />
    <glyph glyph-name="social-twitter" unicode="&#xf139;" 
d="M473 339q-20 -30 -49 -51v-12q0 -49 -18 -97.5t-52 -88.5t-87.5 -65t-117.5 -25q-81 0 -149 44q11 -2 23 -2q67 0 121 42q-32 0 -57 19t-34 48q9 -2 18 -2q13 0 26 4q-34 6 -56 33t-22 62v1q21 -11 44 -12q-43 29 -43 81q0 26 13 48q36 -44 88 -71t112 -30q-3 11 -3 22
q0 40 28.5 68.5t68.5 28.5q42 0 71 -31q33 7 62 24q-12 -35 -43 -54q29 4 56 16z" />
    <glyph glyph-name="social-vimeo" unicode="&#xf13a;" 
d="M-4 276q8 9 22 24t48.5 42.5t59.5 32.5q17 3 29 -5t18.5 -26.5t10.5 -36t8 -43t7 -38.5q6 -23 10 -37t8.5 -26.5t8.5 -18t9 -5.5q18 0 60 78q20 36 3 58.5t-54 1.5q10 60 67 89q52 25 89 3t27 -81q-8 -48 -35 -96.5t-60 -85t-59.5 -60.5t-45.5 -36q-20 -14 -39 -8.5
t-32 18t-20 28.5q-7 15 -37.5 113t-36.5 106q-7 6 -18 2.5t-21 -10.5l-9 -6z" />
    <glyph glyph-name="social-vine" unicode="&#xf13b;" 
d="M449 193v-60q-31 -7 -61 -7q-29 -61 -75.5 -115t-71 -68t-49.5 1q-13 8 -28.5 22t-41 48t-47 78t-43 118t-32.5 161h87q15 -128 49 -209.5t86 -142.5q51 51 88 124q-44 23 -69 68.5t-25 102.5q0 59 32 96.5t88 37.5q54 0 83.5 -32.5t29.5 -91.5q0 -49 -18 -88
q-24 -5 -42.5 1t-25.5 15l-6 8q9 32 9 57q0 54 -33 54q-11 0 -19 -6.5t-12.5 -20t-4.5 -31.5q0 -58 32.5 -91t81.5 -33q19 0 38 4z" />
    <glyph glyph-name="social-whatsapp" unicode="&#xf13c;" 
d="M434 376q69 -67 72 -171q0 -50 -19.5 -95t-52 -77.5t-77.5 -51.5t-95 -19v0q-64 0 -116 28l-130 -33l34 126q-32 57 -32 122q0 101 71 172t172 71t173 -72zM261 3q84 0 143.5 59.5t57.5 143.5q0 84 -59 143t-142 59t-142.5 -59t-59.5 -143q0 -60 31 -107l4 -8l-20 -75
l76 21l8 -5q46 -29 103 -29zM373 154q2 -2 4.5 -3l5 -2t3.5 -2q3 -7 -4 -29q-4 -10 -18 -18.5t-23 -9.5q-29 0 -39 3q-25 8 -35 13q-60 25 -104 91q-2 2 -5.5 7.5t-8 14t-8 19.5t-3.5 21q0 8 1.5 15.5t4.5 13t6 9t6 7.5t4 5q6 8 16 8h11q1 0 3.5 -1t4 -1.5t3.5 -2.5t4 -6
q1 -4 6 -15.5t8.5 -20t4.5 -9.5q2 -5 0 -11q-3 -7 -7 -10q-3 -5 -9 -11q-7 -7 -3 -13q18 -28 33 -42l14 -10t12.5 -8.5t9.5 -5.5t8.5 -4t5.5 -2q9 -4 13 2q1 2 9 11.5t10 12.5q5 6 14 3q7 -2 42 -19z" />
    <glyph glyph-name="social-youtube" unicode="&#xf13d;" 
d="M418 209q39 0 66.5 -27t27.5 -66v-75q0 -39 -27.5 -66.5t-66.5 -27.5h-324q-39 0 -66.5 27.5t-27.5 66.5v75q0 39 27.5 66t66.5 27h324zM162 151v25h-90v-25h30v-150h30v150h30zM247 1v129h-26v-98q-3 -4 -7.5 -7t-7.5 -3q-4 0 -5.5 2t-1.5 7v99h-26v-108q0 -11 4.5 -17
t13.5 -6q8 0 15.5 4t14.5 12v-14h26zM341 28v72q0 15 -6.5 23.5t-18.5 8.5q-6 0 -12 -3t-11 -9v56h-26v-175h26v10q5 -6 11 -9t13 -3q12 0 18 7.5t6 21.5zM431 63v33q0 18 -9.5 28t-27.5 10q-17 0 -28 -11t-11 -27v-59q0 -18 10 -29t27 -11q20 0 29.5 10t9.5 30v7h-27v-6
q0 -11 -2.5 -14.5t-8.5 -3.5t-9 4t-3 14v25h50zM401.5 107.5q2.5 -3.5 2.5 -11.5v-13h-23v13q0 8 3 11q3 4 9 4t8.5 -3.5zM311.5 108q2.5 -3 2.5 -10v-67q0 -6 -2 -9t-7 -3q-3 0 -6 2q-3 1 -6 4v81q3 3 5.5 4t5.5 1q5 0 7.5 -3zM136 331l-39 117h33l21 -77h2l21 77h33
l-38 -113v-81h-33v77zM252 251q-20 0 -31.5 10.5t-11.5 29.5v74q0 16 12 26t32 10q18 0 29.5 -10.5t11.5 -26.5v-74q0 -18 -11.5 -28.5t-30.5 -10.5zM239 366v-78q0 -6 3.5 -9t9 -3t9 3t3.5 9v78q0 4 -3.5 7t-9.5 3q-5 0 -8.5 -3t-3.5 -7zM323 258.5q-5 6.5 -5 19.5v119h29
v-109q0 -5 2 -7.5t6 -2.5q3 0 8 3t9 8v108h29v-143h-29v16q-8 -9 -17 -13q-9 -5 -17 -5q-10 0 -15 6.5z" />
    <glyph glyph-name="timestamp" unicode="&#xf13e;" 
d="M256 448q106 0 181 -75t75 -181t-75 -181t-181 -75t-181 75t-75 181t75 181t181 75zM256 -23q89 0 152 63t63 152q0 58 -29 107.5t-78.5 78.5t-107.5 29t-107.5 -29t-78.5 -78.5t-29 -107.5q0 -89 63 -152t152 -63zM276 371v-171l86 -85l-29 -29l-97 98v187h40z" />
    <glyph glyph-name="trend-down" unicode="&#xf13f;" 
d="M354 18v44h82l-143 142l-89 -89l-204 221l33 30l172 -187l87 88l175 -174v83h45v-158h-158z" />
    <glyph glyph-name="trend-flat" unicode="&#xf140;" 
d="M400 304l112 -112l-112 -112l-32 31l59 59h-427v45h426l-58 58z" />
    <glyph glyph-name="trend-up" unicode="&#xf141;" 
d="M354 366h158v-158h-45v83l-175 -174l-87 88l-172 -187l-33 30l204 221l89 -89l143 142h-82v44z" />
    <glyph glyph-name="type-audio" unicode="&#xf142;" 
d="M370 203q0 -71 -47.5 -124t-117.5 -60v-41h62v-41h-163v41h61v41q-70 7 -117.5 60t-47.5 124h41q0 -60 42 -102.5t102 -42.5t102 42.5t42 102.5h41zM185 86q-40 0 -68.5 28.5t-28.5 68.5v169q0 40 28.5 68.5t68.5 28.5t68.5 -28.5t28.5 -68.5v-169q0 -26 -13 -48.5
t-35.5 -35.5t-48.5 -13zM185 408q-18 0 -32.5 -10.5t-20.5 -27.5h29v-41h-32v-41h32v-41h-32v-41h32v-41h-29q6 -17 20.5 -27.5t32.5 -10.5q12 0 23 5t18.5 13.5t11.5 19.5h-29v41h32v41h-32v41h32v41h-32v41h29q-3 9 -8.5 16t-12 12t-15 7.5t-17.5 2.5z" />
    <glyph glyph-name="type-chart" unicode="&#xf143;" 
d="M41 75v-83h472v-41h-513v497h41v-312l154 167l119 -119l169 167l29 -29l-198 -197l-117 118z" />
    <glyph glyph-name="type-gallery" unicode="&#xf144;" 
d="M461 352q21 0 36 -14.5t15 -36.5v-228q0 -21 -15 -36t-36 -15h-410q-21 0 -36 15t-15 36v228q0 20 13.5 35t33.5 16v18h59v-18h7l63 64q6 5 14 5h132q8 0 14 -5l63 -64h62zM473 73v228q0 5 -3.5 9t-8.5 4h-70q-8 0 -14 5l-63 63h-116l-63 -63q-6 -5 -14 -5h-70
q-5 0 -8.5 -4t-3.5 -9v-228q0 -3 1.5 -6t4.5 -4.5t6 -1.5h410q3 0 6 1.5t4.5 4.5t1.5 6zM256.5 316q42.5 0 72.5 -30.5t30 -73t-30 -72.5t-72.5 -30t-73 30t-30.5 72.5t30.5 73t73 30.5z" />
    <glyph glyph-name="type-map" unicode="&#xf145;" 
d="M162.5 448q67.5 0 115 -47.5t47.5 -115.5q0 -39 -18 -74l-144 -275l-145 275q-18 35 -18 74q0 68 47.5 115.5t115 47.5zM272 229q14 27 14 56q0 51 -36 87.5t-87 36.5t-87.5 -36.5t-36.5 -87.5q0 -29 14 -56l110 -209zM163 363q32 0 54.5 -23t22.5 -55t-22.5 -54.5
t-54.5 -22.5t-55 22.5t-23 54.5t23 55t55 23z" />
    <glyph glyph-name="type-video-large" unicode="&#xf146;" 
d="M256 448q106 0 181 -75t75 -181t-75 -181t-181 -75t-181 75t-75 181t75 181t181 75zM256 -43q64 0 118 31.5t85.5 85.5t31.5 118q0 97 -69 166t-166 69t-166 -69t-69 -166t69 -166t166 -69zM192 83v221l192 -111z" />
    <glyph glyph-name="type-video" unicode="&#xf147;" 
d="M256 448q106 0 181 -75t75 -181t-75 -181t-181 -75t-181 75t-75 181t75 181t181 75zM256 -23q89 0 152 63t63 152t-63 152t-152 63t-152 -63t-63 -152t63 -152t152 -63zM176 64v259l224 -130z" />
    <glyph glyph-name="weather-01" unicode="&#xf148;" 
d="M208 303q46 0 78.5 -32.5t32.5 -78.5t-32.5 -78.5t-78.5 -32.5t-78.5 32.5t-32.5 78.5t32.5 78.5t78.5 32.5zM208 118q31 0 52.5 21.5t21.5 52.5t-21.5 52.5t-52.5 21.5t-52.5 -21.5t-21.5 -52.5t21.5 -52.5t52.5 -21.5zM208 322q-8 0 -13.5 5.5t-5.5 12.5v41
q0 8 5.5 13.5t13.5 5.5t13.5 -5.5t5.5 -13.5v-41q0 -5 -2.5 -9t-7 -6.5t-9.5 -2.5zM90 284l-29 29q-6 5 -6 13t5.5 13.5t13.5 5.5t13 -6l29 -29q6 -5 6 -13t-5.5 -13.5t-13.5 -5.5t-13 6zM78 192q0 -8 -5.5 -13.5t-12.5 -5.5h-41q-8 0 -13.5 5.5t-5.5 13.5q0 5 2.5 9.5t7 7
t9.5 2.5h41q5 0 9 -2.5t6.5 -7t2.5 -9.5zM90 100q5 6 13 6t13.5 -5.5t5.5 -13.5t-6 -13l-29 -29q-5 -6 -13 -6t-13.5 5.5t-5.5 13.5t6 13zM208 62q8 0 13.5 -5.5t5.5 -12.5v-41q0 -8 -5.5 -13.5t-13.5 -5.5t-13.5 5.5t-5.5 13.5v41q0 5 2.5 9t7 6.5t9.5 2.5zM326 100l29 -29
q6 -5 6 -13t-5.5 -13.5t-13.5 -5.5t-13 6l-29 29q-6 5 -6 13t5.5 13.5t13.5 5.5t13 -6zM397 211q8 0 13.5 -5.5t5.5 -13.5t-5.5 -13.5t-13.5 -5.5h-41q-7 0 -12.5 5.5t-5.5 13.5t5.5 13.5t12.5 5.5h41zM313 278q-8 0 -13.5 5.5t-5.5 13.5t6 13l29 29q5 6 13 6t13.5 -5.5
t5.5 -13.5t-6 -13l-29 -29q-5 -6 -13 -6z" />
    <glyph glyph-name="weather-02" unicode="&#xf149;" 
d="M208 303q46 0 78.5 -32.5t32.5 -78.5t-32.5 -78.5t-78.5 -32.5t-78.5 32.5t-32.5 78.5t32.5 78.5t78.5 32.5zM208 118q31 0 52.5 21.5t21.5 52.5t-21.5 52.5t-52.5 21.5t-52.5 -21.5t-21.5 -52.5t21.5 -52.5t52.5 -21.5zM208 322q-8 0 -13.5 5.5t-5.5 12.5v41
q0 8 5.5 13.5t13.5 5.5t13.5 -5.5t5.5 -13.5v-41q0 -5 -2.5 -9t-7 -6.5t-9.5 -2.5zM90 284l-29 29q-6 5 -6 13t5.5 13.5t13.5 5.5t13 -6l29 -29q6 -5 6 -13t-5.5 -13.5t-13.5 -5.5t-13 6zM78 192q0 -8 -5.5 -13.5t-12.5 -5.5h-41q-8 0 -13.5 5.5t-5.5 13.5q0 5 2.5 9.5t7 7
t9.5 2.5h41q5 0 9 -2.5t6.5 -7t2.5 -9.5zM90 100q5 6 13 6t13.5 -5.5t5.5 -13.5t-6 -13l-29 -29q-5 -6 -13 -6t-13.5 5.5t-5.5 13.5t6 13zM208 62q8 0 13.5 -5.5t5.5 -12.5v-41q0 -8 -5.5 -13.5t-13.5 -5.5t-13.5 5.5t-5.5 13.5v41q0 5 2.5 9t7 6.5t9.5 2.5zM326 100l29 -29
q6 -5 6 -13t-5.5 -13.5t-13.5 -5.5t-13 6l-29 29q-6 5 -6 13t5.5 13.5t13.5 5.5t13 -6zM397 211q8 0 13.5 -5.5t5.5 -13.5t-5.5 -13.5t-13.5 -5.5h-41q-7 0 -12.5 5.5t-5.5 13.5t5.5 13.5t12.5 5.5h41zM313 278q-8 0 -13.5 5.5t-5.5 13.5t6 13l29 29q5 6 13 6t13.5 -5.5
t5.5 -13.5t-6 -13l-29 -29q-5 -6 -13 -6z" />
    <glyph glyph-name="weather-03" unicode="&#xf14a;" 
d="M331.5 380q-6.5 0 -11.5 5t-5 11v36q0 6 5 11t11.5 5t11.5 -5t5 -11v-36q0 -6 -5 -11t-11.5 -5zM229 347l-25 25q-12 12 -0.5 23.5t23.5 -0.5l25 -25q11 -11 0 -23q-5 -5 -11.5 -5t-11.5 5zM496 284q6 0 11 -5t5 -11.5t-5 -11.5t-11 -5h-36q-3 0 -6 1.5t-5 3.5t-3.5 5
t-1.5 6q0 7 5 12t11 5h36zM422.5 342q-6.5 0 -11.5 5q-11 11 0 23l25 25q12 12 23.5 0.5t-0.5 -23.5l-25 -25q-5 -5 -11.5 -5zM411 213q23 -10 37.5 -31.5t14.5 -47.5q0 -36 -25.5 -61.5t-61.5 -25.5h-285q-23 0 -43 11.5t-31.5 31.5t-11.5 44q0 30 18 53t47 31v4
q0 29 14 53t38 38t52 14q38 0 67 -24q11 27 35.5 44t54.5 17q40 0 68.5 -28.5t28.5 -68.5q0 -29 -17 -54zM331 332q-25 0 -43.5 -17.5t-19.5 -42.5q10 2 20 2q27 0 50.5 -14.5t35.5 -38.5h1q21 19 21 46t-19 46t-46 19zM376 79q15 0 27.5 7.5t20 20t7.5 27.5q0 22 -16 38
t-39 16q-4 0 -9 -1q-14 -2 -19 11q-4 13 -13 23t-21.5 15t-25.5 5q-12 0 -24 -4q-7 -3 -13 0t-9 9q-7 22 -26 35t-42 13q-29 0 -50.5 -21t-21.5 -51q0 -7 2 -15q1 -7 -3.5 -13t-11.5 -6q-11 -1 -20.5 -5.5t-16.5 -11.5t-11 -17t-4 -20q0 -23 16 -39t38 -16h285z" />
    <glyph glyph-name="weather-04" unicode="&#xf14b;" 
d="M329 380q-7 0 -11.5 5t-4.5 11v36q0 6 4.5 11t11.5 5t11.5 -5t4.5 -11v-36q0 -3 -1 -6t-3.5 -5t-5.5 -3.5t-6 -1.5zM227 347l-26 25q-11 12 0.5 23.5t22.5 -0.5l25 -25q12 -11 0 -23q-4 -5 -11 -5t-11 5zM494 284q6 0 11 -5t5 -11.5t-5 -11.5t-11 -5h-36q-3 0 -6 1.5
t-5.5 3.5t-3.5 5t-1 6q0 7 4.5 12t11.5 5h36zM420.5 342q-6.5 0 -11.5 5q-12 12 0 23l25 25q11 12 22.5 0.5t0.5 -23.5l-25 -25q-5 -5 -11.5 -5zM409 213q15 -7 27 -18.5t18.5 -27.5t6.5 -33q0 -36 -25.5 -61.5t-61.5 -25.5h-285q-36 0 -61.5 25.5t-25.5 61.5q0 19 8.5 37
t23.5 30t34 17q-1 2 -1 4q0 43 31 74t74 31q38 0 67 -24q11 27 35.5 44t54.5 17q26 0 48.5 -13t35.5 -35t13 -49q0 -29 -17 -54zM329 332q-25 0 -43.5 -17.5t-20.5 -42.5q11 2 21 2q27 0 50.5 -14.5t35.5 -38.5h1q20 19 20 46t-18.5 46t-45.5 19zM374 79q22 0 38 16t16 38.5
t-16 38.5t-38 16q-4 0 -10 -1q-13 -2 -18 11q-4 13 -13 23t-21.5 15t-25.5 5t-24 -4q-7 -3 -13 0t-9 9q-5 14 -15 25t-24 17t-29 6q-30 0 -51 -21t-21 -51q0 -7 1 -15q2 -7 -2.5 -13t-12.5 -6q-21 -1 -36 -17t-15 -37q0 -23 16 -39t38 -16h285z" />
    <glyph glyph-name="weather-05" unicode="&#xf14c;" 
d="M412 188q9 0 15.5 -6.5t6.5 -16t-6.5 -15.5t-15.5 -6h-390q-9 0 -15.5 6t-6.5 15.5t6.5 16t15.5 6.5h48q5 35 26 64t52.5 46t68.5 17q56 0 97.5 -36.5t49.5 -90.5h48zM217.5 271q-37.5 0 -66.5 -23.5t-36 -59.5h205q-8 36 -36.5 59.5t-66 23.5zM348 118q9 0 15.5 -6.5
t6.5 -16t-6.5 -15.5t-15.5 -6h-261q-10 0 -16.5 6t-6.5 15.5t6.5 16t16.5 6.5h261zM282 48q9 0 15.5 -6.5t6.5 -15.5q0 -6 -3 -11t-8 -8t-11 -3h-129q-10 0 -16 6.5t-6 15.5t6 15.5t16 6.5h129zM217 347q-9 0 -15.5 6.5t-6.5 15.5v56q0 9 6.5 15.5t15.5 6.5t15.5 -6.5
t6.5 -15.5v-56q0 -9 -6.5 -15.5t-15.5 -6.5zM58 294l-40 39q-6 7 -6 16t6.5 15.5t15.5 6.5t15 -6l40 -40q6 -6 6.5 -15.5t-6 -16t-16 -6.5t-15.5 7zM361 287q-9 0 -15.5 6.5t-6.5 15.5t6 16l40 40q6 6 15.5 6t16 -6.5t6.5 -15.5t-7 -16l-39 -39q-7 -7 -16 -7z" />
    <glyph glyph-name="weather-06" unicode="&#xf14d;" 
d="M329 380q-7 0 -11.5 5t-4.5 11v36q0 6 4.5 11t11.5 5t11.5 -5t4.5 -11v-36q0 -3 -1 -6t-3.5 -5t-5.5 -3.5t-6 -1.5zM227 347l-26 25q-11 12 0.5 23.5t22.5 -0.5l25 -25q12 -11 0 -23q-4 -5 -11 -5t-11 5zM494 284q6 0 11 -5t5 -11.5t-5 -11.5t-11 -5h-36q-3 0 -6 1.5
t-5.5 3.5t-3.5 5t-1 6q0 7 4.5 12t11.5 5h36zM420.5 342q-6.5 0 -11.5 5q-12 12 0 23l25 25q11 12 22.5 0.5t0.5 -23.5l-25 -25q-5 -5 -11.5 -5zM409 213q15 -7 27 -18.5t18.5 -27.5t6.5 -33q0 -24 -12 -44t-32 -31.5t-43 -11.5h-285q-36 0 -61.5 25.5t-25.5 61.5
q0 19 8.5 37t23.5 30t34 17q-1 2 -1 4q0 43 31 74t74 31q38 0 67 -24q11 27 35.5 44t54.5 17q26 0 48.5 -13t35.5 -35t13 -49q0 -29 -17 -54zM329 332q-25 0 -43.5 -17.5t-20.5 -42.5q11 2 21 2q27 0 50.5 -14.5t35.5 -38.5h1q20 19 20 46t-18.5 46t-45.5 19zM374 79
q22 0 38 16t16 38.5t-16 38.5t-38 16q-4 0 -10 -1q-13 -2 -18 11q-4 13 -13 23t-21.5 15t-25.5 5t-24 -4q-7 -3 -13 0t-9 9q-5 14 -15 25t-24 17t-29 6q-30 0 -51 -21t-21 -51q0 -7 1 -15q2 -7 -2.5 -13t-12.5 -6q-21 -1 -36 -17t-15 -37q0 -23 16 -39t38 -16h285z" />
    <glyph glyph-name="weather-07" unicode="&#xf14e;" 
d="M439 263q30 0 51.5 -21t21.5 -51.5t-21.5 -51.5t-51.5 -21h-239q-41 0 -62 36h-65q-30 0 -51.5 21.5t-21.5 51.5q0 25 15.5 44.5t39.5 25.5v4q0 36 25.5 62t61.5 26q26 0 47.5 -14t32.5 -37q22 15 48 15q24 0 45 -13t32 -34q9 2 18 2q23 0 42.5 -12t29.5 -33h1.5h0.5z
M73 181h55q-1 7 -1 9q0 26 15.5 45.5t39.5 25.5v4q0 30 19 54l-1 2q-7 18 -22.5 29.5t-34.5 11.5q-17 0 -31 -8.5t-22 -22.5t-8 -30q0 -6 1 -12.5t-2.5 -11.5t-9.5 -5q-19 -1 -31.5 -14t-12.5 -31q0 -19 13.5 -32.5t32.5 -13.5zM439 145q19 0 32.5 13.5t13.5 32t-13.5 32
t-32.5 13.5q-3 0 -8 -1q-11 -2 -15 9q-6 17 -20 27t-31 10q-10 0 -20 -4q-5 -2 -10.5 0t-7.5 8q-6 18 -22 29t-35 11q-25 0 -43 -17.5t-18 -42.5q0 -7 1.5 -13t-2.5 -11t-10 -5q-18 -1 -30.5 -14t-12.5 -32q0 -12 6 -22.5t16.5 -16.5t22.5 -6h239z" />
    <glyph glyph-name="weather-08" unicode="&#xf14f;" 
d="M439 264q30 0 51.5 -21.5t21.5 -51.5q0 -20 -10 -36.5t-26.5 -26.5t-36.5 -10h-239q-41 0 -62 37h-65q-30 0 -51.5 21t-21.5 52q0 25 15.5 44.5t39.5 25.5v4q0 36 25.5 62t61.5 26q17 0 33 -6.5t28 -18t19 -26.5q22 14 48 14q24 0 45 -12.5t32 -33.5q9 2 18 2
q23 0 42.5 -12t29.5 -33h1h1zM73 182h55q-1 7 -1 9q0 25 15.5 45t39.5 26v3q0 31 19 55l-1 2q-7 18 -22.5 29t-34.5 11q-17 0 -31 -8t-22 -22t-8 -30q0 -6 1 -12.5t-2.5 -11.5t-9.5 -5q-19 -1 -31.5 -14t-12.5 -31q0 -19 13.5 -32.5t32.5 -13.5zM439 146q19 0 32.5 13
t13.5 32t-13.5 32.5t-32.5 13.5q-3 0 -8 -1q-11 -2 -15 9q-6 16 -20 26.5t-31 10.5q-10 0 -20 -4q-5 -3 -10.5 -0.5t-7.5 8.5q-6 18 -22 29t-35 11q-25 0 -43 -18t-18 -43q0 -6 1.5 -12t-2.5 -11t-10 -5q-18 -1 -30.5 -14.5t-12.5 -31.5q0 -12 6 -22.5t16.5 -16.5t22.5 -6
h239z" />
    <glyph glyph-name="weather-11" unicode="&#xf150;" 
d="M2 170q20 42 65 54v5q0 50 35.5 85t84.5 35q34 0 62.5 -17t43.5 -46q12 2 24 2q32 0 58.5 -16.5t40.5 -44.5q31 1 57 -15.5t38 -45.5q3 -7 0 -14t-10 -10q-4 -2 -8 -2q-12 0 -17 12q-7 17 -23 27.5t-34 10.5q-4 0 -11 -1q-16 -3 -21 12q-8 23 -27 36.5t-43 13.5
q-14 0 -27 -5q-7 -3 -14.5 0t-10.5 11q-5 16 -17 28.5t-27.5 19.5t-33.5 7q-34 0 -58.5 -24.5t-24.5 -58.5q0 -9 2 -17t-3.5 -15t-13.5 -7q-38 -2 -54 -36q-3 -7 -10 -9.5t-14 0.5t-10 10.5t1 14.5zM165 93h-146q-8 0 -13.5 5.5t-5.5 13t5.5 13t13.5 5.5h146q7 0 12.5 -5.5
t5.5 -13t-5.5 -13t-12.5 -5.5zM493 130q8 0 13.5 -5.5t5.5 -13t-5.5 -13t-13.5 -5.5h-259q-5 0 -9.5 2.5t-7 6.5t-2.5 9q0 8 5.5 13.5t13.5 5.5h259zM439 72q7 0 12.5 -5t5.5 -13t-5.5 -13.5t-12.5 -5.5h-73q-8 0 -13.5 5.5t-5.5 13.5t5.5 13t13.5 5h73zM292 72q5 0 9 -2.5
t6.5 -6.5t2.5 -9q0 -8 -5 -13.5t-13 -5.5h-256q-8 0 -13.5 5.5t-5.5 13.5q0 4 1.5 7t4 5.5t6 4t7.5 1.5h256z" />
    <glyph glyph-name="weather-12" unicode="&#xf151;" 
d="M438 315q31 0 52.5 -21.5t21.5 -52.5q0 -20 -10 -37t-27 -27t-37 -10q-4 0 -7 2t-5 5.5t-2 6.5q0 6 4 10t10 4q19 0 32.5 13.5t13.5 33t-13.5 33t-32.5 13.5q-3 0 -8 -1q-12 -2 -15 9q-6 17 -20 27t-32 10q-10 0 -20 -4q-6 -2 -11 0.5t-7 7.5q-7 19 -23 30t-35 11
q-26 0 -44 -18t-18 -43q0 -7 1.5 -13t-2.5 -11t-10 -6q-19 0 -31.5 -13.5t-12.5 -32.5q0 -16 10 -28.5t26 -16.5l9 14q7 12 18.5 4t4.5 -19l-69 -105q-4 -6 -12 -6q-4 0 -7 2q-12 8 -4 19l44 68q-20 7 -33 25h-63q-31 0 -52.5 21.5t-21.5 52.5q0 25 15.5 45t40.5 26
q-1 3 -1 4q0 37 26.5 63t62.5 26q24 0 44.5 -11.5t32.5 -31.5q21 13 45.5 13t46 -13t32.5 -34q9 2 18 2q23 0 43 -12.5t30 -33.5h2zM178 313v4q0 33 21 58q-17 34 -55 34q-25 0 -43 -18t-18 -44q0 -6 1 -12q2 -7 -2 -12t-10 -5q-19 -1 -31.5 -14.5t-12.5 -31.5
q0 -19 13.5 -32.5t32.5 -13.5h50q-2 8 -2 15q0 17 7.5 32t20 25.5t28.5 14.5zM283 195l-69 -105q-4 -6 -12 -6q-4 0 -7 2q-12 8 -4 19l69 105q7 12 18.5 4t4.5 -19zM348 195l-69 -105q-4 -6 -12 -6q-4 0 -7 2q-12 8 -4 19l69 105q7 12 18.5 4t4.5 -19zM130 161l-46 -71
q-4 -6 -12 -6q-4 0 -7 2q-12 8 -4 19l46 71q8 11 19.5 3.5t3.5 -18.5zM413 195l-69 -105q-4 -6 -12 -6q-4 0 -7 2q-12 8 -4 19l69 105q7 12 18.5 4t4.5 -19z" />
    <glyph glyph-name="weather-13" unicode="&#xf152;" 
d="M512 176.5q0 -40.5 -28.5 -68.5t-68.5 -28q-8 0 -13 5t-5 12.5t5 13t13 5.5q16 0 30 8t22.5 22t8.5 30.5t-8.5 30.5t-22.5 22.5t-30 8.5q-4 0 -11 -2q-15 -2 -20 12q-7 22 -26 35.5t-41 13.5q-14 0 -27 -5q-8 -3 -15 0t-9 10q-6 16 -17.5 28.5t-26.5 19t-32 6.5
q-34 0 -57.5 -23.5t-23.5 -56.5q0 -9 2 -17q1 -8 -4 -14.5t-13 -7.5q-24 -1 -41 -18.5t-17 -41.5q0 -25 18 -43t43 -18q8 0 13 -5.5t5 -13t-5 -12.5t-13 -5q-40 0 -68.5 28t-28.5 69q0 33 20.5 59t52.5 34v6q0 31 15.5 58t42.5 42.5t59 15.5t60 -16.5t43 -44.5q12 2 24 2
q20 0 38.5 -7t33.5 -20.5t24 -31.5h2q40 0 68.5 -28.5t28.5 -69zM198.5 140.5q6.5 -4.5 8 -11.5t-2.5 -14l-91 -137q-5 -8 -15 -8q-6 0 -10 3q-6 4 -7.5 11.5t2.5 13.5l90 137q5 7 12 8.5t13.5 -3zM284 140.5q6 -4.5 7.5 -11.5t-2.5 -14l-91 -137q-5 -8 -15 -8q-5 0 -10 3
q-6 4 -7.5 11.5t2.5 13.5l91 137q4 7 11.5 8.5t13.5 -3zM369.5 140.5q6.5 -4.5 8 -11.5t-2.5 -14l-91 -137q-6 -8 -15 -8q-6 0 -10 3q-7 4 -8.5 11.5t3.5 13.5l90 137q4 7 11.5 8.5t14 -3z" />
    <glyph glyph-name="weather-14" unicode="&#xf153;" 
d="M410 211q24 -10 38.5 -32t14.5 -48q0 -36 -26 -62t-62 -26q-5 0 -8.5 2.5t-6 6t-2.5 8.5q0 6 5 11t12 5q23 0 39 16t16 39t-16 39t-39 16q-4 0 -10 -1q-13 -2 -18 11q-7 19 -23.5 31.5t-37.5 12.5q-12 0 -24 -5q-7 -3 -13.5 0t-8.5 10q-2 6 -7 14h-1v1q-21 33 -61 33
q-30 0 -51 -21.5t-21 -51.5q0 -7 1 -15q2 -7 -3 -13t-12 -6q-22 -1 -37 -17t-15 -38q0 -15 7.5 -27.5t20 -20t27.5 -7.5q7 0 11.5 -5t4.5 -11.5t-4.5 -11.5t-11.5 -5q-37 0 -62.5 26t-25.5 62q0 30 18.5 53.5t47.5 31.5v4q0 44 31 75t74 31q38 0 68 -25q11 28 35.5 45.5
t55.5 17.5q40 0 68.5 -29t28.5 -69q0 -30 -17 -55zM286 272q28 0 51 -14.5t36 -38.5h1q21 19 21 47q0 27 -19 46t-46 19q-26 0 -44.5 -17.5t-20.5 -43.5q11 2 21 2zM313 396v36q0 7 5 11.5t12 4.5t11.5 -4.5t4.5 -11.5v-36q0 -7 -4.5 -11.5t-11.5 -4.5t-12 4.5t-5 11.5z
M201 372q-12 11 0 22.5t23 0.5l25 -26q12 -11 0 -23q-4 -5 -11 -5t-12 5zM512 266q0 -7 -5 -12t-11 -5h-36q-7 0 -12 5t-5 12t5 11.5t12 4.5h36q6 0 11 -4.5t5 -11.5zM410 346q-11 12 0 23l25 26q12 11 23.5 -0.5t0.5 -22.5l-26 -26q-4 -5 -11 -5t-12 5zM184 76l-82 -125
q-5 -7 -14 -7q-4 0 -9 3t-6.5 10t2.5 12l82 125q3 5 10 6.5t12.5 -2t7 -10.5t-2.5 -12zM261 76l-82 -125q-5 -7 -13 -7q-5 0 -9 3q-6 3 -7.5 10t2.5 12l82 125q4 5 10.5 6.5t12 -2t7 -10.5t-2.5 -12zM338 76l-82 -125q-4 -7 -13 -7q-5 0 -9 3q-6 3 -7.5 10t2.5 12l82 125
q4 5 10.5 6.5t12 -2t7 -10.5t-2.5 -12z" />
    <glyph glyph-name="weather-15" unicode="&#xf154;" 
d="M512 230q0 -26 -13 -48.5t-35.5 -35.5t-48.5 -13q-5 0 -9 2.5t-6.5 6.5t-2.5 9q0 8 5 13t13 5q25 0 43 18t18 43t-18 43t-43 18q-4 0 -11 -1q-15 -3 -20 12q-7 22 -26 35t-41 13q-14 0 -27 -5q-8 -3 -15 0.5t-9 10.5q-4 12 -12 22t-18 17t-22 11t-24 4q-34 0 -57.5 -24
t-23.5 -57q0 -8 2 -16.5t-3.5 -15t-13.5 -6.5q-24 -2 -41 -19.5t-17 -41.5q0 -25 18 -43t43 -18q4 0 7 -1l10 15q2 2 4 2h74q3 0 4 -3t-1 -5l-49 -58h26q3 0 4.5 -3t-1.5 -5l-166 -156q-2 -1 -3.5 -1t-2.5 1q-3 3 -1 6l78 125h-25q-2 0 -3.5 2t0.5 5l29 42q-23 4 -41.5 17
t-29 34t-10.5 44q0 34 20.5 60t52.5 34v5q0 48 34 82.5t83 34.5q32 0 60 -17t43 -45q12 3 24 3q30 0 56 -16.5t40 -43.5h2q40 0 68.5 -28.5t28.5 -68.5zM279 187.5q6 -4.5 7.5 -11.5t-2.5 -14l-90 -137q-6 -8 -15 -8q-6 0 -10 2q-7 5 -8.5 12t2.5 14l91 137q4 7 11.5 8.5
t13.5 -3zM364.5 187.5q6.5 -4.5 8 -11.5t-2.5 -14l-91 -137q-5 -8 -15 -8q-6 0 -10 2q-6 5 -7.5 12t2.5 14l90 137q5 7 12 8.5t13.5 -3z" />
    <glyph glyph-name="weather-16" unicode="&#xf155;" 
d="M371 234q21 -10 34 -29.5t13 -43.5q0 -32 -23 -55.5t-56 -23.5q-6 0 -10.5 4.5t-4.5 10.5t4.5 10.5t10.5 4.5q20 0 34.5 14.5t14.5 35t-14.5 35t-34.5 14.5q-4 0 -9 -1q-12 -2 -16 10q-6 18 -21.5 29t-34.5 11q-11 0 -21 -5q-6 -2 -12 0.5t-8 8.5q-7 20 -24 32t-38 12
q-27 0 -46.5 -19.5t-19.5 -46.5q0 -7 1.5 -13.5t-2.5 -12t-11 -5.5q-20 -1 -33.5 -15.5t-13.5 -34.5t14.5 -34.5t34.5 -14.5q3 0 6 -1l8 12q1 1 3 1h60q3 0 4 -2t-1 -4l-40 -47h22q2 0 3 -2.5t-1 -4.5l-136 -127q-1 -1 -2.5 -1t-2.5 1q-2 2 -1 5l64 102l-20 -1q-2 0 -3 2
t0 4l24 34q-28 5 -47 27t-19 51q0 28 17 49t43 28q-1 2 -1 4q0 40 28 68t68 28q34 0 61 -23q10 25 32 41t50 16q18 0 34.5 -7t28 -19t18.5 -28.5t7 -34.5q0 -27 -15 -49zM258 289q25 0 46.5 -13t32.5 -35h1q19 17 19 42t-17.5 42t-41.5 17q-15 0 -28 -7.5t-21 -20t-9 -27.5
q9 2 18 2zM283 401v32q0 6 4.5 10.5t10.5 4.5t10.5 -4.5t4.5 -10.5v-32q0 -6 -4.5 -10.5t-10.5 -4.5t-10.5 4.5t-4.5 10.5zM182 379q-11 10 -0.5 20.5t21.5 0.5l22 -23q11 -11 0 -21q-4 -4 -10 -4t-10 4zM463 283q0 -6 -4.5 -10.5t-10.5 -4.5h-32q-7 0 -11 4.5t-4 10.5
t4 10.5t11 4.5h32q6 0 10.5 -4.5t4.5 -10.5zM371 356q-11 10 0 21l23 23q10 10 20.5 -0.5t0.5 -20.5l-23 -23q-5 -4 -11 -4t-10 4zM232 106l-74 -112q-4 -7 -12 -7q-5 0 -8 2q-13 8 -5 21l74 112q9 13 21 4.5t4 -20.5zM302 106l-74 -112q-4 -7 -12 -7q-5 0 -9 2q-12 8 -4 21
l74 112q8 13 20.5 4.5t4.5 -20.5z" />
    <glyph glyph-name="weather-17" unicode="&#xf156;" 
d="M371 234q14 -6 24.5 -17t16.5 -25.5t6 -30.5q0 -21 -10.5 -39.5t-29 -29t-39.5 -10.5q-6 0 -10.5 4.5t-4.5 10.5t4.5 10.5t10.5 4.5q20 0 35 14.5t15 35t-15 35t-35 14.5q-4 0 -9 -1q-12 -2 -16 10q-6 18 -21.5 29t-34.5 11q-11 0 -21 -5q-6 -2 -12 0.5t-8 8.5
q-7 20 -24 32t-38 12q-27 0 -46.5 -19.5t-19.5 -46.5q0 -7 1.5 -13.5t-2.5 -12t-11 -5.5q-20 -1 -33.5 -15.5t-13.5 -34.5t14.5 -34.5t34.5 -14.5q3 0 6 -1l8 12q1 1 3 1h60q3 0 4 -2t-1 -4l-40 -47h22q2 0 3 -2.5t-1 -4.5l-136 -127q-1 -1 -2.5 -1t-2.5 1q-2 2 -1 5l64 102
l-20 -1q-2 0 -3 2t0 4l24 34q-28 5 -47 27t-19 51q0 28 17 49t43 28q-1 2 -1 4q0 40 28 68t68 28q34 0 61 -23q10 25 32 41t50 16q18 0 34.5 -7t28 -19t18.5 -28.5t7 -34.5q0 -27 -15 -49zM258 289q25 0 46.5 -13t32.5 -35h1q19 17 19 42t-17.5 42t-41.5 17q-15 0 -28 -7.5
t-21 -20t-9 -27.5q9 2 18 2zM283 401v32q0 6 4.5 10.5t10.5 4.5t10.5 -4.5t4.5 -10.5v-32q0 -6 -4.5 -10.5t-10.5 -4.5t-10.5 4.5t-4.5 10.5zM182 379q-11 10 -0.5 20.5t21.5 0.5l22 -23q11 -11 0 -21q-4 -4 -10 -4t-10 4zM463 283q0 -6 -4.5 -10.5t-10.5 -4.5h-32
q-7 0 -11 4.5t-4 10.5t4 10.5t11 4.5h32q6 0 10.5 -4.5t4.5 -10.5zM371 356q-11 10 0 21l23 23q10 10 20.5 -0.5t0.5 -20.5l-23 -23q-5 -4 -11 -4t-10 4zM232 106l-74 -112q-4 -7 -12 -7q-5 0 -8 2q-13 8 -5 21l74 112q9 13 21 4.5t4 -20.5zM302 106l-74 -112q-4 -7 -12 -7
q-5 0 -9 2q-12 8 -4 21l74 112q8 13 20.5 4.5t4.5 -20.5z" />
    <glyph glyph-name="weather-18" unicode="&#xf157;" 
d="M438 313q31 0 52.5 -21.5t21.5 -52.5t-21.5 -52.5t-52.5 -21.5q-4 0 -7 2t-5 5t-2 7q0 6 4 10t10 4q19 0 32.5 13.5t13.5 32.5t-13.5 32.5t-32.5 13.5q-3 0 -8 -1q-12 -2 -15 10q-6 16 -20 26.5t-32 10.5q-10 0 -20 -5q-6 -2 -11 0.5t-7 8.5q-7 18 -23 29.5t-35 11.5
q-26 0 -44 -18t-18 -44q0 -6 1.5 -12.5t-2.5 -11.5t-10 -5q-19 -1 -31.5 -14.5t-12.5 -31.5q0 -16 10 -28.5t26 -16.5l9 14q7 11 18.5 3.5t4.5 -19.5l-69 -104q-4 -7 -12 -7q-4 0 -7 3q-12 7 -4 19l44 67q-20 8 -33 26h-63q-31 0 -52.5 21.5t-21.5 52.5q0 16 7 31t20 25.5
t29 14.5q-1 2 -1 4q0 37 26.5 63t62.5 26q24 0 44.5 -12t32.5 -32q21 13 45.5 13t46 -12.5t32.5 -34.5q9 2 18 2q23 0 43 -12t30 -33h2zM178 310v4q0 33 21 58q-17 34 -55 34q-16 0 -30 -8t-22.5 -22.5t-8.5 -30.5q0 -6 1 -13q2 -6 -2 -11t-10 -5q-19 -1 -31.5 -14.5
t-12.5 -31.5q0 -20 13.5 -33.5t32.5 -13.5h50q-2 9 -2 16q0 17 7.5 32t20 25t28.5 14zM283 192l-69 -104q-4 -7 -12 -7q-4 0 -7 3q-12 7 -4 19l69 105q7 11 18.5 3.5t4.5 -19.5zM348 192l-69 -104q-4 -7 -12 -7q-4 0 -7 3q-12 7 -4 19l69 105q7 11 18.5 3.5t4.5 -19.5z
M130 158l-46 -70q-4 -7 -12 -7q-4 0 -7 3q-12 7 -4 19l46 70q8 12 19.5 4.5t3.5 -19.5zM413 192l-69 -104q-4 -7 -12 -7q-4 0 -7 3q-12 7 -4 19l69 105q7 11 18.5 3.5t4.5 -19.5z" />
    <glyph glyph-name="weather-19" unicode="&#xf158;" 
d="M438 321q31 0 52.5 -22t21.5 -52q0 -20 -10 -37.5t-27 -27t-37 -9.5q-3 0 -5.5 1t-4.5 3t-3 4.5t-1 4.5q0 4 2 7.5t5 5t7 1.5q19 0 32.5 13.5t13.5 33t-13.5 33t-32.5 13.5q-3 0 -8 -1q-12 -2 -15.5 9t-11.5 19.5t-18 13t-22 4.5q-10 0 -20 -4q-6 -2 -11 0.5t-7 7.5
q-7 19 -23 30t-35 11q-26 0 -44 -18t-18 -43q0 -7 1.5 -13t-2.5 -11t-10 -5q-19 -1 -31.5 -14.5t-12.5 -32t12.5 -32t30.5 -14.5q6 0 10 -4.5t3.5 -10t-4.5 -9.5t-10 -3q-35 2 -55 30h-63q-31 0 -52.5 22t-21.5 52q0 26 15.5 45.5t40.5 25.5q-1 2 -1 4q0 37 26.5 63t62.5 26
q24 0 44.5 -11.5t32.5 -31.5q21 13 46 13q16 0 31 -6t27.5 -16.5t19.5 -24.5q9 2 18 2q23 0 43 -12.5t30 -33.5zM178 318v4q0 33 21 58q-17 34 -55 34q-25 0 -43 -18t-18 -44q0 -6 1 -12q2 -6 -2 -11.5t-10 -5.5q-19 -1 -31.5 -14t-12.5 -32t13.5 -32.5t32.5 -13.5h50
q-2 8 -2 16q0 25 15.5 45t40.5 26zM254 202.5q0 5.5 4 9.5t10 4t10 -4t4 -9.5t-4 -9.5t-10 -4t-10 4t-4 9.5zM320 202.5q0 5.5 4 9.5t10 4t10 -4t4 -9.5t-4 -9.5t-10 -4t-10 4t-4 9.5zM309 152q-4 0 -7 1.5t-5 5t-2 6.5q0 6 4 10t10 4t10 -4t4 -9.5t-4 -9.5t-10 -4zM297 128
q0 -6 -4 -10t-9.5 -4t-9.5 4t-4 10t4 10t9.5 4t9.5 -4t4 -10zM412 202.5q0 -5.5 -4 -9.5t-9.5 -4t-9.5 4t-4 9.5t4 9.5t9.5 4t9.5 -4t4 -9.5zM387 165.5q0 -5.5 -4 -9.5t-9.5 -4t-9.5 4t-4 9.5t4 9.5t9.5 4t9.5 -4t4 -9.5zM362 128q0 -6 -4 -10t-10 -4t-10 4t-4 10t4 10
t10 4t10 -4t4 -10zM272 90.5q0 -5.5 -4 -9.5t-9.5 -4t-9.5 4t-4 9.5t4 9.5t9.5 4t9.5 -4t4 -9.5zM336 91q0 -4 -1.5 -7t-5 -5t-6.5 -2q-6 0 -10 4t-4 9.5t4 9.5t9.5 4t9.5 -4t4 -9zM165 128q0 -4 -1.5 -7t-5 -5t-6.5 -2q-6 0 -10 4t-4 10t4 10t10 4q3 0 6.5 -2t5 -5t1.5 -7z
M242.5 152q-5.5 0 -9.5 4t-4 9.5t4 9.5t9.5 4t9.5 -4t4 -9.5t-4 -9.5t-9.5 -4zM231 128q0 -6 -4 -10t-9.5 -4t-9.5 4t-4 10t4 10t9.5 4t9.5 -4t4 -10zM140 90.5q0 -5.5 -4 -9.5t-9.5 -4t-9.5 4t-4 9.5t4 9.5t9.5 4t9.5 -4t4 -9.5zM206 91q0 -6 -4 -10t-9.5 -4t-9.5 4t-4 10
q0 3 1.5 6.5t4.5 5t7 1.5t7 -1.5t5 -5t2 -6.5zM113 152q-4 0 -7 1.5t-5 5t-2 6.5q0 6 4 10t9.5 4t9.5 -4t4 -9.5t-4 -9.5t-9 -4zM101 128q0 -6 -4 -10t-9.5 -4t-9.5 4t-4 10t4 10t9.5 4t9.5 -4t4 -10zM76 91q0 -6 -4 -10t-10 -4t-10 4t-4 9.5t4 9.5t10 4q4 0 7 -1.5t5 -5
t2 -6.5z" />
    <glyph glyph-name="weather-20" unicode="&#xf159;" 
d="M438 235q20 0 37 -10t27 -27t10 -37t-10 -37t-27 -27t-37 -10q-4 0 -7 2t-5 5t-2 7q0 6 4 10t10 4q13 0 23.5 6t16.5 17t6 23q0 20 -13.5 33.5t-32.5 13.5q-3 0 -8 -1q-12 -2 -15 9q-6 17 -20 27t-32 10q-10 0 -20 -4q-6 -2 -11.5 0.5t-6.5 7.5q-7 18 -23 29.5t-35 11.5
q-26 0 -44 -18t-18 -43q0 -7 1.5 -13t-2.5 -11t-10 -6q-19 -1 -31.5 -14t-12.5 -31.5t12.5 -32t30.5 -14.5q6 0 10 -4.5t3.5 -10t-5 -9.5t-9.5 -3q-35 2 -55 30h-63q-31 0 -52.5 21.5t-21.5 52.5q0 25 15.5 45t40.5 26q-1 3 -1 4q0 37 26.5 63t62.5 26q24 0 44.5 -11.5
t32.5 -31.5q10 6 20 9q8 24 29.5 39t47.5 15q17 0 32 -6.5t26 -17.5t17.5 -26t6.5 -32q0 -10 -3 -21q26 -12 39 -38h1.5h0.5zM178 233v4q0 32 21 58q-17 34 -55 34q-16 0 -30.5 -8.5t-22.5 -22.5t-8 -31q0 -6 1 -13q2 -6 -2 -11t-10 -5q-19 -1 -31.5 -14.5t-12.5 -31.5
q0 -19 13.5 -32.5t32.5 -13.5h50q-2 8 -2 15q0 26 15.5 46t40.5 26zM345 278q9 3 18 3q2 0 8 -1q2 7 2 14q0 15 -7.5 27.5t-20 20t-27.5 7.5q-29 0 -45 -24q49 -3 72 -47zM254 117.5q0 5.5 4 9.5t10 4t10 -4t4 -10q0 -3 -2 -6.5t-5 -5t-7 -1.5q-6 0 -10 4t-4 9.5zM320 117.5
q0 5.5 4 9.5t10 4t10 -4t4 -10q0 -3 -2 -6.5t-5 -5t-7 -1.5q-6 0 -10 4t-4 9.5zM309 66q-6 0 -10 4t-4 10t4 10t10 4t10 -4t4 -10q0 -4 -2 -7t-5 -5t-7 -2zM297 43q0 -4 -1.5 -7t-5 -5t-6.5 -2t-5.5 1t-4.5 3t-3 4.5t-1 5.5t2 6.5t5 5t7 1.5q5 0 9 -4t4 -9zM412 117.5
q0 -5.5 -4 -9.5t-9.5 -4t-9.5 4t-4 9.5t4 9.5t9.5 4t9.5 -4t4 -9.5zM387 80q0 -6 -4 -10t-9.5 -4t-9.5 4t-4 10t4 10t9.5 4t9.5 -4t4 -10zM362 42.5q0 -5.5 -4 -9.5t-10 -4t-10 4t-4 9.5t4 9.5t10 4t10 -4t4 -9.5zM272 5.5q0 -5.5 -4 -9.5t-10 -4q-3 0 -6.5 1.5t-5 5
t-1.5 6.5q0 6 4 10t9.5 4t9.5 -4t4 -9.5zM336 5q0 -3 -1.5 -6.5t-5 -5t-6.5 -1.5q-6 0 -10 4t-4 9q0 4 2 7t5 5t7 2q5 0 9 -4t4 -10zM165 42.5q0 -5.5 -4 -9.5t-9.5 -4t-9.5 4t-4 9.5t4 9.5t9.5 4t9.5 -4t4 -9.5zM242.5 66q-3.5 0 -6.5 2t-5 5t-2 7q0 6 4 10t10 4
q3 0 6.5 -2t5 -5t1.5 -7t-1.5 -7t-5 -5t-7 -2zM231 43q0 -6 -4 -10t-9.5 -4t-9.5 4t-4 9.5t4 9.5t10 4q3 0 6.5 -1.5t5 -5t1.5 -6.5zM140 5.5q0 -5.5 -4 -9.5t-10 -4q-3 0 -5.5 1t-4 3t-2.5 4.5t-1 4.5q0 6 4 10t9.5 4t9.5 -4t4 -9.5zM206 5.5q0 -5.5 -4 -9.5t-9.5 -4
t-9.5 4t-4 9.5t4 9.5t9.5 4t9.5 -4t4 -9.5zM112.5 66q-5.5 0 -9.5 4t-4 10q0 2 0.5 4t2 4t3 3t3.5 2t5 1q5 0 9 -4t4 -10t-4 -10t-9.5 -4zM101 42.5q0 -5.5 -4 -9.5t-10 -4q-3 0 -6.5 2t-5 5t-1.5 6.5t1.5 7t5 5t6.5 1.5q6 0 10 -4t4 -9.5zM76 5q0 -5 -4 -9t-10 -4t-10 4
t-4 9.5t4 9.5t10 4q4 0 7 -2t5 -5t2 -7zM304 403v31q0 5 4 9t10 4t10 -4t4 -9v-31q0 -5 -4 -9t-10 -4t-10 4t-4 9zM209 383q-9 10 0.5 19.5t19.5 -0.5l21 -21q10 -10 0 -19q-4 -4 -9.5 -4t-9.5 4zM427 308h31q5 0 9 -4t4 -10t-4 -10t-9 -4h-31q-5 0 -9 4t-4 10t4 10t9 4z
M386 362q-10 9 0 19l21 21q10 10 19.5 0.5t-0.5 -19.5l-21 -21q-4 -4 -9.5 -4t-9.5 4z" />
    <glyph glyph-name="weather-21" unicode="&#xf15a;" 
d="M410 211q24 -10 38.5 -31.5t13.5 -48.5q0 -23 -11.5 -43.5t-31.5 -32t-44 -11.5q-7 0 -12 4.5t-5 11.5t5 11.5t12 4.5q23 0 39 16.5t16 39t-16 38.5t-39 16q-4 0 -10 -1q-13 -2 -17.5 11t-14 23t-21.5 15.5t-26 5.5q-12 0 -24 -5q-7 -2 -13.5 0.5t-8.5 9.5
q-8 22 -26.5 35.5t-42.5 13.5q-19 0 -36 -10t-26.5 -27t-9.5 -36q0 -8 1 -15q2 -8 -3 -14t-12 -6q-22 -1 -37 -17t-15 -38t16 -38.5t39 -16.5q7 0 11.5 -4.5t4.5 -11.5t-4.5 -11.5t-11.5 -4.5q-37 0 -62.5 25.5t-25.5 61.5q0 31 18.5 54.5t47.5 30.5v5q0 43 31 74t74 31
q38 0 68 -24q11 27 35.5 44.5t55.5 17.5q40 0 68.5 -28.5t28.5 -69.5q0 -30 -17 -55zM286 273q28 0 51 -14.5t36 -39.5h1q21 20 21 47t-19 46t-46 19q-26 0 -44.5 -17.5t-20.5 -43.5q11 3 21 3zM313 396v36q0 7 5 11.5t12 4.5t11.5 -4.5t4.5 -11.5v-36q0 -7 -4.5 -11.5
t-11.5 -4.5t-12 4.5t-5 11.5zM201 372q-12 12 -0.5 23.5t23.5 -0.5l25 -25q12 -12 0 -23q-4 -5 -11 -5t-12 5zM512 266q0 -4 -2 -8t-6 -6t-8 -2h-36q-4 0 -7 1t-5 3.5t-3.5 5.5t-1.5 6q0 7 5 12t12 5h36q6 0 11 -5t5 -12zM410 347q-11 11 0 23l25 25q12 12 24 0
q4 -5 4 -11.5t-4 -11.5l-26 -25q-5 -5 -11.5 -5t-11.5 5zM174.5 63q-6.5 0 -11.5 4.5t-5 11.5q0 4 2.5 8t6 6t8 2t8 -2t6 -6t2.5 -8q0 -7 -5 -11.5t-11.5 -4.5zM161 35q0 -7 -5 -11.5t-11.5 -4.5t-11.5 4.5t-5 11.5t5 11.5t11.5 4.5t11.5 -4.5t5 -11.5zM131 -9q0 -7 -5 -12
t-11.5 -5t-11 5t-4.5 11.5t4.5 11.5t11.5 5q4 0 8 -2.5t6 -6t2 -7.5zM245 63q-4 0 -8 2t-6 6t-2 8q0 3 1.5 6t3.5 5.5t5 3.5t6 1q7 0 11.5 -4.5t4.5 -11.5t-4.5 -11.5t-11.5 -4.5zM232 35q0 -7 -5 -11.5t-12 -4.5q-4 0 -7.5 2t-6 5.5t-2.5 8.5q0 7 5 11.5t11.5 4.5
t11.5 -4.5t5 -11.5zM202 -9.5q0 -6.5 -5 -11.5t-11.5 -5t-11.5 5t-5 12q0 3 1.5 6t3.5 5t5 3.5t7 1.5q6 0 11 -5t5 -11.5zM332 79q0 -4 -2 -8t-6 -6t-8 -2t-8 2t-6 6t-2 8t2 8t6 6t8 2q7 0 11.5 -4.5t4.5 -11.5zM302 35q0 -7 -4.5 -11.5t-11.5 -4.5t-11.5 4.5t-4.5 11.5
t4.5 11.5t11.5 4.5t11.5 -4.5t4.5 -11.5zM273 -9.5q0 -6.5 -5 -11.5t-11.5 -5t-11.5 5t-5 11.5t5 11.5t11.5 5t11.5 -5t5 -11.5z" />
    <glyph glyph-name="weather-22" unicode="&#xf15b;" 
d="M438 318q31 0 52.5 -21.5t21.5 -52t-21.5 -52t-52.5 -21.5q-6 0 -10 4t-4 9q0 4 2 7t5 5t7 2q19 0 32.5 13.5t13.5 33t-13.5 33t-32.5 13.5q-3 0 -8 -1q-12 -2 -15.5 9t-11.5 19.5t-18 13t-22 4.5q-10 0 -20 -4q-6 -2 -11 0.5t-7 7.5q-7 19 -23 30t-35 11q-26 0 -44 -18
t-18 -43q0 -7 1.5 -13t-2.5 -11t-10 -5q-19 -1 -31.5 -14.5t-12.5 -32t12.5 -32t30.5 -14.5q6 0 10 -4.5t3.5 -10t-4.5 -9.5t-10 -3q-35 2 -55 30h-63q-31 0 -52.5 22t-21.5 52q0 26 15.5 45.5t40.5 25.5q-1 2 -1 4q0 37 26.5 63t62.5 26q24 0 44.5 -11.5t32.5 -31.5
q21 13 46 13q16 0 31 -6t27.5 -16.5t19.5 -24.5q9 2 18 2q23 0 43 -12.5t30 -33.5h2zM178 316v4q0 33 21 58q-17 34 -55 34q-25 0 -43 -18t-18 -44q0 -6 1 -12q2 -6 -2 -11.5t-10 -5.5q-19 -1 -31.5 -14.5t-12.5 -31.5q0 -19 13.5 -32.5t32.5 -13.5h50q-2 8 -2 16
q0 25 15.5 45t40.5 26zM254 200.5q0 5.5 4 9.5t10 4t10 -4t4 -9.5t-4 -9.5t-10 -4t-10 4t-4 9.5zM320 200.5q0 5.5 4 9.5t10 4t10 -4t4 -9.5t-4 -9.5t-10 -4t-10 4t-4 9.5zM309 150q-4 0 -7 1.5t-5 5t-2 6.5q0 6 4 10t10 4t10 -4t4 -10q0 -3 -2 -6.5t-5 -5t-7 -1.5zM297 126
q0 -6 -4 -10t-9.5 -4t-9.5 4t-4 10t4 10t9.5 4t9.5 -4t4 -10zM412 200q0 -5 -4 -9t-9.5 -4t-9.5 4t-4 9.5t4 9.5t9 4q4 0 7 -2t5 -5t2 -7zM387 163.5q0 -3.5 -2 -7t-5 -5t-7 -1.5q-5 0 -9 4t-4 9.5t4 9.5t9 4q4 0 7 -2t5 -5t2 -6.5zM362 126q0 -6 -4 -10t-10 -4t-10 4t-4 10
t4 10t10 4t10 -4t4 -10zM272 88.5q0 -5.5 -4 -9.5t-9.5 -4t-9.5 4t-4 9.5t4 9.5t9.5 4t9.5 -4t4 -9.5zM336 89q0 -4 -1.5 -7t-5 -5t-6.5 -2q-6 0 -10 4t-4 10q0 3 2 6.5t5 5t7 1.5q5 0 9 -4t4 -9zM165 126q0 -4 -1.5 -7t-5 -5t-6.5 -2q-6 0 -10 4t-4 10t4 10t10 4
q3 0 6.5 -2t5 -5t1.5 -7zM243 150q-6 0 -10 4t-4 9.5t4 9.5t9.5 4t9.5 -4t4 -10q0 -3 -1.5 -6.5t-5 -5t-6.5 -1.5zM231 126q0 -6 -4 -10t-9.5 -4t-9.5 4t-4 10t4 10t9.5 4t9.5 -4t4 -10zM140 89q0 -6 -4 -10t-9.5 -4t-9.5 4t-4 9.5t4 9.5t9 4q4 0 7 -1.5t5 -5t2 -6.5z
M206 88.5q0 -5.5 -4 -9.5t-9.5 -4t-9.5 4t-4 10q0 3 1.5 6.5t4.5 5t7 1.5q6 0 10 -4t4 -9.5zM113 150q-4 0 -7 1.5t-5 5t-2 6.5q0 6 4 10t9.5 4t9.5 -4t4 -9.5t-4 -9.5t-9 -4zM101 126q0 -6 -4 -10t-9.5 -4t-9.5 4t-4 10t4 10t9.5 4t9.5 -4t4 -10zM76 88.5q0 -5.5 -4 -9.5
t-10 -4t-10 4t-4 9.5t4 9.5t10 4t10 -4t4 -9.5z" />
    <glyph glyph-name="weather-23" unicode="&#xf15c;" 
d="M438 236q31 0 52.5 -22t21.5 -52.5t-21.5 -52t-52.5 -21.5q-6 0 -10 4t-4 9.5t4 10t10 4.5q13 0 23.5 6t16.5 16.5t6 23t-6 23.5t-16.5 17t-23.5 6q-3 0 -8 -1q-12 -2 -15 9q-6 17 -20 27t-32 10q-10 0 -20 -4q-6 -2 -11.5 0.5t-6.5 8.5q-7 18 -23 29.5t-35 11.5
q-26 0 -44 -18t-18 -44q0 -6 1.5 -12.5t-2.5 -11.5t-10 -5q-19 -1 -31.5 -14.5t-12.5 -31.5t12.5 -31.5t30.5 -14.5q6 -1 10 -5t3 -10q0 -4 -2 -7t-5.5 -4.5t-6.5 -1.5q-35 2 -55 30h-63q-31 0 -52.5 22t-21.5 52q0 26 15.5 46t40.5 26q-1 2 -1 4q0 36 26.5 62.5t62.5 26.5
q24 0 44.5 -12t32.5 -32q10 6 20 9q5 16 16.5 28.5t27.5 19.5t33 7q34 0 58 -24.5t24 -58.5q0 -10 -3 -21q26 -12 39 -37h1.5h0.5zM178 233v4q0 33 21 58q-17 34 -55 34q-25 0 -43 -18t-18 -43q0 -6 1 -13q2 -6 -2 -11t-10 -6q-19 0 -31.5 -13.5t-12.5 -32.5t13.5 -32.5
t32.5 -13.5h50q-2 9 -2 16q0 17 7.5 32t20 25t28.5 14zM345 279q9 2 18 2h8q2 7 2 13q0 15 -7.5 27.5t-20 20t-27.5 7.5q-29 0 -45 -23q49 -4 72 -47zM254 118q0 4 2 7t5 4.5t7 1.5q6 0 10 -4t4 -9.5t-4 -9.5t-10 -4t-10 4t-4 10zM320 117.5q0 5.5 4 9.5t10 4t10 -4t4 -9.5
t-4 -9.5t-10 -4t-10 4t-4 9.5zM309 67q-6 0 -10 4t-4 9.5t4 9.5t10 4t10 -4t4 -9q0 -4 -2 -7t-5 -5t-7 -2zM297 43.5q0 -3.5 -1.5 -7t-5 -5t-6.5 -1.5t-5.5 1t-4.5 2.5t-3 4t-1 5.5q0 6 4 10t10 4q3 0 6.5 -2t5 -5t1.5 -6.5zM412 117.5q0 -5.5 -4 -9.5t-9.5 -4t-9.5 4
t-4 9.5t4 9.5t9.5 4t9.5 -4t4 -9.5zM387 81q0 -6 -4 -10t-9.5 -4t-9.5 4t-4 9.5t4 9.5t9 4q4 0 7 -1.5t5 -5t2 -6.5zM362 43q0 -5 -4 -9t-10 -4t-10 4t-4 9.5t4 9.5t10 4q4 0 7 -2t5 -5t2 -7zM272 6q0 -4 -2 -7t-5 -5t-6.5 -2t-7 2t-5 5t-1.5 7q0 6 4 10t9.5 4t9.5 -4t4 -10
zM336 6q0 -4 -1.5 -7t-5 -5t-6.5 -2q-6 0 -10 4t-4 10q0 4 2 7t5 5t7 2q5 0 9 -4t4 -10zM165 43.5q0 -5.5 -4 -9.5t-9.5 -4t-9.5 4t-4 9.5t4 9.5t9.5 4t9.5 -4t4 -9.5zM243 67q-3 0 -5.5 1t-4.5 3t-3 4.5t-1 5.5q0 5 4 9t10 4q3 0 6.5 -1.5t5 -5t1.5 -7t-1.5 -6.5t-5 -5
t-6.5 -2zM231 43q0 -5 -4 -9t-9.5 -4t-9.5 4t-4 9.5t4 9.5t10 4q3 0 6.5 -2t5 -5t1.5 -7zM140 6q0 -6 -4 -10t-10 -4q-3 0 -5.5 1.5t-4 3t-2.5 4t-1 5.5q0 6 4 10t9.5 4t9.5 -4t4 -10zM206 6q0 -4 -2 -7t-5 -5t-7 -2q-5 0 -9 4t-4 10t4 10t9 4q4 0 7 -2t5 -5t2 -7zM112.5 67
q-5.5 0 -9.5 4t-4 9.5t4 9.5t9.5 4t9.5 -4t4 -9.5t-4 -9.5t-9.5 -4zM101 43.5q0 -5.5 -4 -9.5t-10 -4q-3 0 -6.5 1.5t-5 5t-1.5 6.5q0 6 4 10t9.5 4t9.5 -4t4 -9.5zM76 6q0 -6 -4 -10t-10 -4t-10 4t-4 10t4 10t10 4q4 0 7 -2t5 -5t2 -7zM304 404v30q0 6 4 10t10 4t10 -4
t4 -10v-30q0 -4 -2 -7t-5 -5t-7 -2q-6 0 -10 4t-4 10zM209 384q-9 9 0.5 19t19.5 0l21 -21q10 -10 0 -20q-4 -4 -9.5 -4t-9.5 4zM427 308h31q5 0 9 -4t4 -9.5t-4 -9.5t-9 -4h-31q-5 0 -9 4t-4 9.5t4 9.5t9 4zM386 362q-10 10 0 20l21 21q10 10 19.5 0t-0.5 -20l-21 -21
q-4 -4 -9.5 -4t-9.5 4z" />
    <glyph glyph-name="weather-24" unicode="&#xf15d;" 
d="M438 318q31 0 52.5 -22t21.5 -52.5t-21.5 -52t-52.5 -21.5q-6 0 -10 4t-4 9.5t4 9.5t10 4q19 0 32.5 14t13.5 33t-13.5 32.5t-32.5 13.5q-3 0 -8 -1q-12 -2 -15 9q-6 17 -20 27t-32 10q-10 0 -20 -4q-6 -2 -11 0.5t-7 7.5q-7 19 -23 30t-35 11q-26 0 -44 -18t-18 -43
q0 -6 1.5 -12.5t-2.5 -11.5t-10 -5q-19 -1 -31.5 -14.5t-12.5 -31.5q0 -11 4.5 -20.5t13 -16t18.5 -8.5l9 13q7 12 18.5 4.5t4.5 -19.5l-71 -111q-4 -6 -12 -6q-4 0 -7 2q-12 8 -4 19l47 74q-21 7 -34 25h-63q-31 0 -52.5 22t-21.5 52q0 26 15.5 46t39.5 26v4
q0 36 26.5 62.5t62.5 26.5q16 0 30.5 -5.5t26.5 -15.5t20 -23q21 13 45.5 13t46 -12.5t32.5 -34.5q9 2 18 2q23 0 43 -12.5t30 -32.5h1h1zM178 315v4q0 33 21 58q-17 34 -55 34q-25 0 -43 -18t-18 -43q0 -7 1.5 -13t-2.5 -11t-10 -6q-19 -1 -31.5 -14t-12.5 -32t13.5 -32.5
t32.5 -13.5h50q-2 8 -2 16q0 25 15.5 45t40.5 26zM348 197l-71 -111q-4 -6 -12 -6q-4 0 -7 2q-12 8 -4 19l71 111q7 12 18.5 4.5t4.5 -19.5zM257 205.5q0 5.5 4 9.5t9.5 4t9.5 -4t4 -9.5t-4 -9.5t-9.5 -4t-9.5 4t-4 9.5zM415 205.5q0 -5.5 -4 -9.5t-10 -4t-10 4t-4 9.5
t4 9.5t10 4t10 -4t4 -9.5zM389 168q0 -6 -4 -10t-9.5 -4t-9.5 4t-4 10t4 10t9.5 4t9.5 -4t4 -10zM364 130.5q0 -5.5 -4 -9.5t-9.5 -4t-9.5 4t-4 10q0 3 2 6.5t5 5t7 1.5q5 0 9 -4t4 -9.5zM339 93.5q0 -5.5 -4 -9.5t-9.5 -4t-9.5 4t-4 9.5t4 9.5t9.5 4t9.5 -4t4 -9.5z
M245.5 154q-5.5 0 -9.5 4t-4 10t4 10t9.5 4t9.5 -4t4 -10t-4 -10t-9.5 -4zM234 131q0 -4 -2 -7t-5 -5t-7 -2t-7 2t-5 5t-2 7q0 5 4 9t10 4t10 -4t4 -9zM208 93q0 -5 -4 -9t-9.5 -4t-9.5 4t-4 9q0 4 2 7t5 5t7 2q2 0 5 -1t4.5 -3t2.5 -4.5t1 -5.5zM115 154q-4 0 -7 2t-4.5 5
t-1.5 7q0 3 1 5.5t2.5 4t4 3t5.5 1.5q6 0 10 -4t4 -10t-4 -10t-10 -4zM104 130.5q0 -5.5 -4 -9.5t-10 -4t-10 4t-4 10q0 3 2 6.5t5 5t7 1.5q6 0 10 -4t4 -9.5zM78 93.5q0 -5.5 -4 -9.5t-9.5 -4t-9.5 4t-4 9q0 3 1 5.5t3 4.5t4.5 3t5.5 1q5 0 9 -4t4 -9.5z" />
    <glyph glyph-name="weather-25" unicode="&#xf15e;" 
d="M438 318q31 0 52.5 -22t21.5 -52q0 -20 -10 -37t-27 -27t-37 -10q-4 0 -7 2t-5 5t-2 6.5t2 7t5 5t7 1.5q19 0 32.5 14t13.5 33t-13.5 32.5t-32.5 13.5q-3 0 -8 -1q-12 -2 -15 9q-6 17 -20 27t-32 10q-10 0 -20 -4q-6 -2 -11 0.5t-7 7.5q-7 19 -23 30t-35 11
q-26 0 -44 -18t-18 -43q0 -6 1.5 -12.5t-2.5 -11.5t-10 -5q-12 -1 -22.5 -7t-16 -16.5t-5.5 -22.5q0 -17 10 -29.5t26 -15.5l9 13q7 12 18.5 4.5t4.5 -19.5l-71 -111q-4 -6 -12 -6q-4 0 -7 2q-12 8 -4 19l47 74q-21 8 -34 25h-63q-31 0 -52.5 22t-21.5 52q0 26 15.5 46
t39.5 26v4q0 36 26.5 62.5t62.5 26.5q24 0 44.5 -12t32.5 -32q21 13 45.5 13t46 -12.5t32.5 -34.5q9 2 18 2q23 0 43 -12.5t30 -32.5h1h1zM178 315v4q0 33 21 58q-17 34 -55 34q-25 0 -43 -18t-18 -43q0 -7 1 -13q2 -6 -2 -11t-10 -6q-19 -1 -31.5 -14t-12.5 -32t13.5 -32.5
t32.5 -13.5h50q-2 9 -2 16q0 25 15.5 45t40.5 26zM348 197l-71 -111q-4 -6 -12 -6q-4 0 -7 2q-12 8 -4 19l71 111q7 12 18.5 4.5t4.5 -19.5zM257 205.5q0 5.5 4 9.5t9.5 4t9.5 -4t4 -9.5t-4 -9.5t-9.5 -4t-9.5 4t-4 9.5zM415 205.5q0 -5.5 -4 -9.5t-10 -4t-10 4t-4 9
q0 4 2 7t5 5t7 2q6 0 10 -4t4 -9.5zM389 168q0 -4 -1.5 -7t-5 -5t-6.5 -2q-6 0 -10 4t-4 10t4 10t10 4q3 0 6.5 -2t5 -5t1.5 -7zM364 130.5q0 -5.5 -4 -9.5t-9.5 -4t-9.5 4t-4 9.5t4 9.5t9.5 4t9.5 -4t4 -9.5zM339 93.5q0 -5.5 -4 -9.5t-9.5 -4t-9.5 4t-4 9.5t4 9.5t9.5 4
t9.5 -4t4 -9.5zM245.5 154q-5.5 0 -9.5 4t-4 10q0 4 1.5 7t5 5t7 2t6.5 -2t5 -5t2 -7q0 -6 -4 -10t-9.5 -4zM234 130.5q0 -5.5 -4 -9.5t-10 -4q-2 0 -4 1l-4 2t-3 2.5t-2 4t-1 4.5q0 3 2 6.5t5 5t7 1.5q6 0 10 -4t4 -9.5zM208 93.5q0 -5.5 -4 -9.5t-9.5 -4t-9.5 4t-4 9
q0 3 1 5.5t3 4.5t4.5 3t5.5 1q5 0 9 -4t4 -9.5zM115 154q-6 0 -9.5 4t-3.5 10t3.5 10t9.5 4t10 -4t4 -10t-4 -10t-10 -4zM104 130.5q0 -5.5 -4 -9.5t-10 -4t-10 4t-4 9.5t4 9.5t10 4t10 -4t4 -9.5zM78 93.5q0 -5.5 -4 -9.5t-9.5 -4t-9.5 4t-4 9.5t4 9.5t9.5 4t9.5 -4t4 -9.5
z" />
    <glyph glyph-name="weather-26" unicode="&#xf15f;" 
d="M438 318q31 0 52.5 -22t21.5 -52.5t-21.5 -52t-52.5 -21.5q-6 0 -10 4t-4 9.5t4 9.5t10 4q19 0 32.5 14t13.5 33t-13.5 32.5t-32.5 13.5q-3 0 -8 -1q-12 -2 -15 9q-6 17 -20 27t-32 10q-10 0 -20 -4q-6 -2 -11 0.5t-7 7.5q-5 13 -13.5 22t-20 14t-24.5 5q-26 0 -44 -18
t-18 -43q0 -6 1.5 -12.5t-2.5 -11.5t-10 -5q-19 -1 -31.5 -14.5t-12.5 -31.5q0 -17 10 -29.5t26 -15.5l9 13q7 12 18.5 4.5t4.5 -19.5l-71 -111q-4 -6 -12 -6q-4 0 -7 2q-12 8 -4 19l47 74q-21 8 -34 25h-63q-31 0 -52.5 22t-21.5 52q0 26 15.5 46t40.5 26q-1 2 -1 4
q0 36 26.5 62.5t62.5 26.5q24 0 44.5 -12t32.5 -32q21 13 45.5 13t46 -12.5t32.5 -34.5q9 2 18 2q23 0 43 -12.5t30 -32.5h1h1zM178 315v4q0 33 21 58q-17 34 -55 34q-25 0 -43 -18t-18 -43q0 -7 1.5 -13t-2.5 -11t-10 -6q-19 -1 -31.5 -14t-12.5 -32t13.5 -32.5t32.5 -13.5
h50q-2 8 -2 16q0 25 15.5 45t40.5 26zM348 197l-71 -111q-4 -6 -12 -6q-4 0 -7 2q-12 8 -4 19l71 111q7 12 18.5 4.5t4.5 -19.5zM257 205.5q0 5.5 4 9.5t9.5 4t9.5 -4t4 -9.5t-4 -9.5t-9.5 -4t-9.5 4t-4 9.5zM415 205.5q0 -5.5 -4 -9.5t-10 -4t-10 4t-4 9.5t4 9.5t10 4
t10 -4t4 -9.5zM389 168q0 -6 -4 -10t-9.5 -4t-9.5 4t-4 10t4 10t9.5 4t9.5 -4t4 -10zM364 130.5q0 -5.5 -4 -9.5t-9.5 -4t-9.5 4t-4 10q0 3 2 6.5t5 5t7 1.5q5 0 9 -4t4 -9.5zM339 93.5q0 -5.5 -4 -9.5t-9.5 -4t-9.5 4t-4 9.5t4 9.5t9.5 4t9.5 -4t4 -9.5zM245.5 154
q-5.5 0 -9.5 4t-4 10t4 10t9.5 4t9.5 -4t4 -10t-4 -10t-9.5 -4zM234 130.5q0 -5.5 -4 -9.5t-9.5 -4t-9.5 4t-4 9.5t4 9.5t9.5 4t9.5 -4t4 -9.5zM208 93.5q0 -5.5 -4 -9.5t-9.5 -4t-9.5 4t-4 9q0 4 2 7t5 5t7 2q5 0 9 -4t4 -9.5zM115 154q-4 0 -7 2t-4.5 5t-1.5 7q0 6 4 10
t9.5 4t9.5 -4t4 -10t-4 -10t-10 -4zM104 131q0 -4 -2 -7t-5 -5t-7 -2q-6 0 -10 4t-4 9.5t4 9.5t10 4t10 -4t4 -9zM78 93q0 -3 -1.5 -6.5t-5 -5t-7 -1.5t-6.5 1.5t-5 5t-2 6.5q0 6 4 10t9.5 4t9.5 -4t4 -10z" />
    <glyph glyph-name="weather-29" unicode="&#xf160;" 
d="M438 318q31 0 52.5 -22t21.5 -52.5t-21.5 -52t-52.5 -21.5q-6 0 -10 4t-4 9.5t4 9.5t10 4q19 0 32.5 14t13.5 33t-13.5 32.5t-32.5 13.5q-3 0 -8 -1q-12 -2 -15 9q-6 17 -20 27t-32 10q-10 0 -20 -4q-6 -2 -11 0.5t-7 7.5q-5 13 -13.5 22t-20 14t-24.5 5q-26 0 -44 -18
t-18 -43q0 -6 1.5 -12.5t-2.5 -11.5t-10 -5q-19 -1 -31.5 -14.5t-12.5 -31.5q0 -17 10 -29.5t26 -15.5l9 13q7 12 18.5 4.5t4.5 -19.5l-71 -111q-4 -6 -12 -6q-4 0 -7 2q-12 8 -4 19l47 74q-21 8 -34 25h-63q-31 0 -52.5 22t-21.5 52q0 26 15.5 46t40.5 26q-1 2 -1 4
q0 36 26.5 62.5t62.5 26.5q24 0 44.5 -12t32.5 -32q21 13 46 13q12 0 24 -3.5t22 -9.5t18 -14.5t14 -19.5q9 2 18 2q23 0 43 -12.5t30 -32.5h1h1zM178 315v4q0 33 21 58q-17 34 -55 34q-25 0 -43 -18t-18 -43q0 -7 1.5 -13t-2.5 -11t-10 -6q-19 -1 -31.5 -14t-12.5 -32
t13.5 -32.5t32.5 -13.5h50q-2 9 -2 16q0 25 15.5 45t40.5 26zM348 197l-71 -111q-4 -6 -12 -6q-4 0 -7 2q-12 8 -4 19l71 111q7 12 18.5 4.5t4.5 -19.5zM257 205.5q0 5.5 4 9.5t9.5 4t9.5 -4t4 -9.5t-4 -9.5t-9.5 -4t-9.5 4t-4 9.5zM415 205q0 -3 -2 -6.5t-5 -5t-7 -1.5
q-6 0 -10 4t-4 9.5t4 9.5t10 4t10 -4t4 -10zM389 168q0 -4 -1.5 -7t-5 -5t-6.5 -2q-6 0 -10 4t-4 10t4 10t9.5 4t9.5 -4t4 -10zM364 130.5q0 -5.5 -4 -9.5t-9.5 -4t-9.5 4t-4 9.5t4 9.5t9.5 4t9.5 -4t4 -9.5zM339 93.5q0 -5.5 -4 -9.5t-9.5 -4t-9.5 4t-4 9.5t4 9.5t9.5 4
t9.5 -4t4 -9.5zM245.5 154q-5.5 0 -9.5 4t-4 10t4 10t9.5 4t9.5 -4t4 -10t-4 -10t-9.5 -4zM234 130.5q0 -5.5 -4 -9.5t-9.5 -4t-9.5 4t-4 10q0 3 1 5.5t2.5 4t4 2.5t5.5 1q6 0 10 -4t4 -9.5zM208 93.5q0 -5.5 -4 -9.5t-9.5 -4t-9.5 4t-4 9.5t4 9.5t9.5 4t9.5 -4t4 -9.5z
M115 154q-3 0 -5.5 1.5t-4 3t-2.5 4t-1 5.5q0 6 4 10t9.5 4t9.5 -4t4 -10t-4 -10t-10 -4zM104 131q0 -4 -2 -7t-5 -5t-7 -2q-6 0 -10 4t-4 9.5t4 9.5t10 4t10 -4t4 -9zM78 93.5q0 -5.5 -4 -9.5t-9 -4q-4 0 -7 1.5t-5 5t-2 6.5q0 6 4 10t9.5 4t9.5 -4t4 -9.5z" />
    <glyph glyph-name="weather-30" unicode="&#xf161;" 
d="M191 141q41 -35 41 -89q0 -48 -34 -82t-82 -34t-82 34t-34 82q0 54 41 89v232q0 31 22 53t53 22t53 -22t22 -53v-232zM116 -24q31 0 53.5 22.5t22.5 53.5q0 40 -33 62l-9 6v253q0 15 -10 25t-24 10q-24 0 -32 -23h32v-40h-34v-35h34v-40h-34v-35h34v-40h-34v-35h34v-40
h-35l-8 -6q-33 -22 -33 -62q0 -31 22.5 -53.5t53.5 -22.5zM344 394v-40h-38v-39h-41v39h-39v40h39v39h41v-39h38z" />
    <glyph glyph-name="weather-31" unicode="&#xf162;" 
d="M191 142q41 -35 41 -89q0 -48 -34 -82t-82 -34t-82 34t-34 82q0 54 42 89v233q0 30 21.5 52t52.5 22q20 0 37.5 -10t27.5 -27t10 -37v-233zM116 -23q31 0 53.5 22.5t22.5 53.5q0 40 -33 62l-9 6v254q0 14 -10 24t-24 10t-24 -10t-10 -24v-139h34v-40h-34v-35h34v-40h-35
l-8 -6q-33 -22 -33 -62q0 -31 22.5 -53.5t53.5 -22.5zM226 239h118v-41h-118v41z" />
    <glyph glyph-name="weather-32" unicode="&#xf163;" 
d="M0 265q0 5 2.5 9t6.5 6.5t9 2.5h280q4 0 8 1t7.5 3.5t6.5 5t5 6t3 7.5t1 9q0 8 -4 15.5t-11.5 11.5t-16 4t-15.5 -4t-11.5 -11.5t-4.5 -15.5t-5 -13t-12.5 -5t-12.5 5t-5 13q0 27 19.5 47t47 20t47.5 -20t20 -47.5t-20 -47t-47 -19.5h-280q-8 0 -13 5t-5 12zM445 321
q28 0 47.5 -19.5t19.5 -47.5q0 -18 -9 -33.5t-24.5 -24.5t-33.5 -9h-427q-8 0 -13 5t-5 12.5t5 12.5t13 5h427q6 0 12 2.5t10.5 7t7 10.5t2.5 12q0 13 -9.5 22t-22.5 9t-22 -9t-9 -22q0 -7 -5.5 -12.5t-12.5 -5.5q-4 0 -7 1.5t-5.5 4t-4 5.5t-1.5 7q0 28 19.5 47.5
t47.5 19.5zM327 164q28 0 47.5 -19.5t19.5 -47.5q0 -9 -2 -17.5t-6.5 -16t-10.5 -13.5t-13.5 -10.5t-16.5 -7t-18 -2.5q-27 0 -47 20t-20 47q0 8 5.5 13t12.5 5q5 0 9 -2.5t6.5 -6.5t2.5 -9q0 -13 9 -22t22 -9t22.5 9t9.5 22t-9.5 22.5t-22.5 9.5h-309q-8 0 -13 5t-5 12.5
t5 12.5t13 5h309z" />
    <glyph glyph-name="weather-33" unicode="&#xf164;" 
d="M394 137.5q8 -10.5 3 -22.5q-24 -59 -76 -94t-115 -35q-14 0 -28 2q-85 12 -136.5 80.5t-39.5 153.5q10 70 61 119t121 57q13 1 21 -9.5t3 -22.5q-8 -21 -10 -38q-10 -66 30 -119t106 -62q16 -2 39 0q13 1 21 -9.5zM184 34q29 -4 58 3t53 23t41 40q-5 0 -9 1
q-85 12 -136.5 80t-39.5 153q1 4 2 9q-42 -15 -70.5 -49t-34.5 -79q-9 -65 31 -118t105 -63z" />
    <glyph glyph-name="weather-34" unicode="&#xf165;" 
d="M394 136.5q8 -10.5 3 -22.5q-24 -59 -76 -94t-115 -35q-14 0 -28 2q-85 12 -136.5 80.5t-39.5 153.5q10 70 61 119t121 56q13 2 21 -8.5t3 -22.5q-8 -21 -10 -38q-10 -66 30 -119t106 -62q16 -3 39 0q13 1 21 -9.5zM184 33q44 -6 85 12t67 54q-5 0 -9 1q-85 12 -136.5 80
t-39.5 153q1 4 2 9q-42 -15 -70.5 -49t-34.5 -79q-9 -65 31 -118t105 -63z" />
    <glyph glyph-name="weather-35" unicode="&#xf166;" 
d="M511 228q-13 -31 -40 -51q38 -30 38 -76q0 -40 -28.5 -68.5t-68.5 -28.5h-315q-40 0 -68.5 28.5t-28.5 68.5q0 33 20.5 59t52.5 34q-1 3 -1 5q0 48 34.5 82t82.5 34t82 -35q0 8 1 13q6 42 37 71.5t73 34.5q10 1 16.5 -7t2.5 -18q-5 -11 -6 -21q-5 -36 17 -65.5t58 -34.5
q10 -1 22 0q10 1 16.5 -7t2.5 -18zM412 40q25 0 43 18t18 43t-18 42.5t-43 17.5q-4 0 -10 -1q-15 -3 -20 12q-8 21 -26.5 34.5t-40.5 13.5q-14 0 -27 -5q-7 -3 -14 0t-10 10q-8 24 -29 39t-46 15q-34 0 -57.5 -23.5t-23.5 -56.5q0 -9 2 -17t-3 -14.5t-14 -6.5
q-24 -2 -40.5 -19t-16.5 -41q0 -25 18 -43t43 -18h315zM412 197q10 0 21 -2q17 8 30 23q-50 8 -80 48t-24 90q-44 -20 -51 -68q-2 -16 1 -32h3h3q30 0 56 -16t39 -43h1h1z" />
    <glyph glyph-name="weather-36" unicode="&#xf167;" 
d="M511 228q-13 -31 -40 -51q38 -30 38 -76q0 -40 -28.5 -68.5t-68.5 -28.5h-316q-39 0 -67.5 28.5t-28.5 68.5q0 33 20.5 59t51.5 34v5q0 48 34 82t82.5 34t82.5 -35q0 8 1 13q6 42 37 71.5t73 34.5q10 1 16.5 -7t2.5 -18q-5 -11 -6 -21q-5 -36 17 -65.5t58 -34.5
q10 -1 22 0q10 1 16.5 -7t2.5 -18zM412 40q25 0 43 18t18 43t-18 42.5t-43 17.5q-4 0 -10 -1q-15 -3 -20 12q-8 21 -26.5 34.5t-40.5 13.5q-14 0 -27 -5q-7 -3 -14 0t-10 10q-6 16 -17 28.5t-26.5 19t-31.5 6.5q-34 0 -57.5 -23.5t-23.5 -56.5q0 -9 2 -17t-3 -14.5t-14 -6.5
q-24 -2 -40.5 -19t-16.5 -41q0 -25 17.5 -43t42.5 -18h316zM412 197q10 0 20 -2q18 8 31 23q-50 8 -80 48t-24 90q-45 -20 -51 -68q-3 -16 1 -32h3h3q30 0 56 -16t39 -43h2z" />
    <glyph glyph-name="weather-37" unicode="&#xf168;" 
d="M412 180q9 0 15.5 -6.5t6.5 -15.5t-6.5 -15.5t-15.5 -6.5h-390q-9 0 -15.5 6.5t-6.5 15.5t6.5 15.5t15.5 6.5h48q8 54 50 90.5t97.5 36.5t97 -36.5t49.5 -90.5h48zM217 263q-25 0 -46.5 -11t-36 -29.5t-19.5 -42.5h205q-8 36 -36.5 59.5t-66.5 23.5zM348 110
q9 0 15.5 -6.5t6.5 -15.5t-6.5 -15.5t-15.5 -6.5h-261q-6 0 -11.5 3t-8.5 8t-3 11t3 11t8.5 8t11.5 3h261zM282 41q9 0 15.5 -6.5t6.5 -16t-6.5 -15.5t-15.5 -6h-129q-10 0 -16 6t-6 16q0 6 2.5 11t8 8t11.5 3h129zM217 339q-9 0 -15.5 6.5t-6.5 15.5v56q0 9 6.5 15.5
t15.5 6.5t15.5 -6.5t6.5 -15.5v-56q0 -9 -6.5 -15.5t-15.5 -6.5zM58 286l-40 40q-6 6 -6 15t6.5 15.5t15.5 6.5t15 -6l40 -40q6 -6 6.5 -15t-6 -15.5t-16 -6.5t-15.5 6zM361 280q-9 0 -15.5 6.5t-6.5 15.5t6 15l40 40q6 6 15.5 6t16 -6.5t6.5 -15.5t-7 -15l-39 -40
q-7 -6 -16 -6z" />
    <glyph glyph-name="weather-38" unicode="&#xf169;" 
d="M511 278q-13 -31 -40 -52q38 -29 38 -76q0 -26 -13 -48t-35.5 -35t-48.5 -13q-7 0 -12.5 5.5t-5.5 12.5q0 5 2.5 9t6.5 6.5t9 2.5q25 0 43 17.5t18 43t-18 43t-43 17.5q-4 0 -10 -1q-15 -3 -20 12q-8 21 -26.5 34.5t-40.5 13.5q-14 0 -27 -5q-7 -3 -14 0t-10 10
q-8 24 -29 39t-46 15q-34 0 -57.5 -23.5t-23.5 -56.5q0 -9 2 -17t-3 -14.5t-14 -6.5q-24 -2 -40.5 -19t-16.5 -42t17.5 -42.5t43.5 -17.5q4 0 8.5 -2.5t7 -6.5t2.5 -9q0 -7 -5.5 -12.5t-12.5 -5.5q-40 0 -68.5 28.5t-28.5 67.5q0 34 20.5 60t51.5 34v5q0 48 34 82t82.5 34
t82.5 -35q0 8 1 13q6 42 36.5 71.5t73.5 34.5q10 1 16.5 -7t2.5 -18q-5 -11 -6 -21q-5 -36 17 -65.5t58 -34.5q10 -1 22 0q10 1 16.5 -7t2.5 -18zM433 245q17 8 29 23q-49 8 -79 48t-24 90q-45 -20 -51 -68q-3 -16 1 -32h2h4q30 0 55.5 -16t39.5 -43h1h1q10 0 21 -2zM202 90
l-90 -137q-5 -8 -15 -8q-5 0 -10 3q-6 4 -7.5 11t2.5 14l90 136q4 7 11.5 8.5t14 -2.5t8 -11.5t-3.5 -13.5zM287 90l-90 -137q-5 -8 -15 -8q-5 0 -10 3q-6 4 -7.5 11t2.5 14l90 136q4 7 11.5 8.5t13.5 -2.5t7.5 -11.5t-2.5 -13.5zM372 90l-90 -137q-5 -8 -15 -8q-5 0 -10 3
q-6 4 -7.5 11t2.5 14l90 136q4 7 11.5 8.5t13.5 -2.5t7.5 -11.5t-2.5 -13.5z" />
    <glyph glyph-name="weather-39" unicode="&#xf16a;" 
d="M511 277q-13 -31 -40 -51q38 -30 38 -76q0 -40 -28.5 -68.5t-68.5 -28.5q-7 0 -12.5 5.5t-5.5 13t5.5 12.5t12.5 5q17 0 31 8t22 22t8 31q0 25 -18 42.5t-43 17.5q-4 0 -10 -1q-15 -3 -20 12q-8 21 -26.5 34.5t-40.5 13.5q-14 0 -27 -5q-7 -3 -14 0t-10 10q-8 24 -29 39
t-46 15q-34 0 -57.5 -23.5t-23.5 -56.5q0 -9 2 -17t-3 -14.5t-14 -6.5q-15 -1 -28.5 -9.5t-21 -22t-7.5 -28.5q0 -25 17.5 -43t43.5 -18q4 0 8.5 -2.5t7 -6.5t2.5 -9q0 -7 -5.5 -12.5t-12.5 -5.5q-40 0 -68.5 28.5t-28.5 68.5q0 33 20.5 59t51.5 34v5q0 48 34 82t82.5 34
t82.5 -35q0 8 1 13q6 42 36.5 71.5t73.5 34.5q10 1 16.5 -7t2.5 -18q-5 -11 -6 -21q-5 -36 17 -65.5t58 -34.5q10 -1 22 0q10 1 16.5 -7t2.5 -18zM433 244q17 8 29 23q-49 8 -79 48t-24 90q-45 -20 -51 -68q-3 -16 1 -32h2h4q20 0 38.5 -7t33 -20.5t23.5 -31.5h1h1
q10 0 21 -2zM202 89l-90 -137q-5 -8 -15 -8q-5 0 -10 3q-6 4 -7.5 11.5t2.5 13.5l90 137q4 6 11.5 7.5t14 -2.5t8 -11.5t-3.5 -13.5zM287 89l-90 -137q-5 -8 -15 -8q-5 0 -10 3q-6 4 -7.5 11.5t2.5 13.5l90 137q4 6 11.5 7.5t13.5 -2.5t7.5 -11.5t-2.5 -13.5zM372 89
l-90 -137q-5 -8 -15 -8q-5 0 -10 3q-6 4 -7.5 11.5t2.5 13.5l90 137q4 6 11.5 7.5t13.5 -2.5t7.5 -11.5t-2.5 -13.5z" />
    <glyph glyph-name="weather-40" unicode="&#xf16b;" 
d="M442 274q29 -2 49.5 -23t20.5 -51t-21.5 -52t-52.5 -22q-6 0 -10 4t-4 10q0 4 2 7t5 5t7 2q13 0 23.5 6t16.5 17t6 23q0 19 -13.5 32.5t-32.5 13.5h-8q-12 -2 -15 9q-4 11 -12 19.5t-18 13t-22 4.5q-10 0 -20 -4q-6 -3 -11 -0.5t-7 8.5q-5 12 -13.5 21.5t-20 14.5
t-24.5 5q-17 0 -31 -8.5t-22.5 -22.5t-8.5 -31q0 -6 2 -12q1 -6 -3 -11t-10 -6q-19 -1 -31.5 -14t-12.5 -32q0 -16 10 -28.5t26 -16.5l9 14q7 11 18.5 3.5t4.5 -18.5l-69 -105q-4 -6 -12 -6q-4 0 -7 2q-12 7 -4 19l44 67q-20 8 -33 26h-63q-20 0 -37 10t-27 27t-10 37
q0 25 15.5 45t40.5 26q-1 2 -1 4q0 37 26.5 63t62.5 26q24 0 44.5 -11.5t32.5 -32.5q21 13 46 13q13 0 27 -4v2.5v3.5q3 16 10 30.5t18.5 25t26 17.5t30.5 9q8 1 12.5 -5.5t1.5 -13.5q-4 -9 -5 -16q-4 -28 13 -50.5t45 -26.5q7 -1 17 0q8 1 12.5 -5.5t1.5 -13.5
q-11 -27 -35 -43zM178 275q0 33 21 58q-17 34 -55 34q-25 0 -43 -18t-18 -43q0 -6 1 -13q2 -6 -2 -11t-10 -5q-19 -1 -31.5 -14.5t-12.5 -31.5q0 -19 13.5 -33t32.5 -14h50q-2 9 -2 16q0 26 15.5 45.5t40.5 26.5v3zM422 294q11 7 18 15q-38 6 -61 36.5t-18 69.5
q-34 -16 -39 -52q-1 -8 0 -18q14 -11 23 -28q9 2 18 2q35 0 59 -25zM283 154l-69 -105q-4 -6 -12 -6q-4 0 -7 2q-12 7 -4 19l69 105q7 11 18.5 3.5t4.5 -18.5zM348 154l-69 -105q-4 -6 -12 -6q-4 0 -7 2q-12 7 -4 19l69 105q7 11 18.5 3.5t4.5 -18.5zM130 119l-46 -70
q-4 -6 -12 -6q-4 0 -7 2q-12 7 -4 19l46 71q8 11 19.5 3.5t3.5 -19.5zM413 154l-69 -105q-4 -6 -12 -6q-4 0 -7 2q-12 7 -4 19l69 105q7 11 18.5 3.5t4.5 -18.5z" />
    <glyph glyph-name="weather-41" unicode="&#xf16c;" 
d="M455 295q-11 -27 -35 -46q34 -26 34 -68q0 -23 -12 -43t-31.5 -31.5t-43.5 -11.5q-6 0 -11 5t-5 11q0 5 2.5 8.5t6 6t7.5 2.5q23 0 38.5 15.5t15.5 38t-15.5 38t-38.5 15.5q-3 0 -9 -1q-13 -2 -18 11q-6 19 -22.5 31t-37.5 12q-12 0 -23 -5q-7 -2 -13 0.5t-9 9.5
q-5 14 -15 25t-23.5 16.5t-28.5 5.5q-29 0 -50 -20.5t-21 -50.5q0 -7 1.5 -14.5t-3 -13.5t-12.5 -6q-14 -1 -25.5 -8t-18.5 -19t-7 -27q0 -22 16 -37.5t38 -15.5h7l8 11q1 2 4 2h65q2 0 3 -2.5t0 -4.5l-44 -51h24q2 0 3 -2.5t-1 -4.5l-147 -138q-2 -1 -3.5 -1t-2.5 1
q-2 2 -1 5l70 111l-22 -1q-2 0 -3.5 2.5t0.5 4.5l26 37q-31 5 -51.5 29t-20.5 55q0 30 18 53t47 31v4q0 43 30 73.5t73 30.5t74 -31v11q4 25 17.5 45.5t35 33.5t46.5 15q9 1 14.5 -6t1.5 -16q-4 -10 -5 -18q-5 -33 15 -59t52 -31q9 -1 20 0q9 1 14.5 -6t1.5 -16zM368 267
q8 0 17 -1q17 7 27 20q-44 7 -71 43t-21 80q-40 -18 -46 -61q-2 -14 1 -28h5q27 0 50 -14t36 -39h0.5h1.5zM252 121l-80 -122q-5 -7 -14 -7q-5 0 -9 3q-13 9 -4 22l80 122q9 13 22.5 4.5t4.5 -22.5zM328 121l-81 -122q-5 -7 -13 -7q-5 0 -9 3q-13 9 -5 22l81 122q3 6 9.5 7
t12.5 -2q13 -9 5 -23z" />
    <glyph glyph-name="weather-42" unicode="&#xf16d;" 
d="M438 327q31 0 52.5 -21.5t21.5 -52t-21.5 -52t-52.5 -21.5q-6 0 -10 4t-4 9.5t4 9.5t10 4q19 0 32.5 13.5t13.5 33t-13.5 33t-32.5 13.5q-3 0 -8 -1q-12 -2 -15 9q-6 17 -20 27t-32 10q-10 0 -20 -4q-6 -2 -11.5 0.5t-6.5 7.5q-7 19 -23 30t-35 11q-26 0 -44 -18t-18 -43
q0 -7 1.5 -13t-2.5 -11t-10 -5q-19 -1 -31.5 -14.5t-12.5 -31.5q0 -27 23 -40l5 7q1 2 3 2h56q2 0 3 -2t0 -4l-38 -44h20q3 0 3.5 -2.5t-0.5 -3.5l-127 -119q-1 -1 -2.5 -1t-2.5 1q-2 2 0 4l59 96l-19 -1q-2 0 -3 2t1 4l26 38q-12 8 -20 19h-63q-31 0 -52.5 22t-21.5 52
q0 26 15.5 45.5t40.5 25.5q-1 2 -1 4q0 37 26.5 63t62.5 26q16 0 30.5 -5t26.5 -15t20 -23q21 13 46 13q12 0 24 -3.5t22 -9.5t18 -15t14 -19q9 2 18 2q23 0 43 -12.5t30 -33.5h2zM178 325v4q0 33 21 58q-17 34 -55 34q-25 0 -43 -18t-18 -44q0 -6 1.5 -12t-2.5 -11.5
t-10 -5.5q-19 -1 -31.5 -14.5t-12.5 -31.5q0 -19 13.5 -32.5t32.5 -13.5h50q-2 8 -2 16q0 25 15.5 45t40.5 26zM304 207l-69 -105q-4 -6 -12 -6q-4 0 -7 2q-12 8 -4 19l69 105q7 12 19 4.5t4 -19.5zM358 207l-69 -105q-4 -6 -11 -6q-4 0 -8 2q-11 8 -4 19l69 105
q8 12 19.5 4.5t3.5 -19.5zM128 173l-47 -71q-4 -6 -11 -6q-4 0 -8 2q-11 8 -4 19l47 71q8 12 19.5 4t3.5 -19zM413 207l-69 -105q-4 -6 -12 -6q-4 0 -7 2q-12 8 -4 19l69 105q7 12 18.5 4.5t4.5 -19.5z" />
    <glyph glyph-name="weather-43" unicode="&#xf16e;" 
d="M442 275q29 -2 49.5 -23t20.5 -51t-21.5 -52t-52.5 -22q-6 0 -10 4t-4 10t4 10t10 4q19 0 32.5 13.5t13.5 32.5t-13.5 32.5t-32.5 13.5h-8q-12 -2 -15 9q-6 16 -20 26.5t-32 10.5q-10 0 -20 -4q-6 -3 -11 -0.5t-7 8.5q-7 18 -23 29.5t-35 11.5q-26 0 -44 -18t-18 -44
q0 -6 2 -12q1 -6 -3 -11t-10 -6q-19 -1 -31.5 -14t-12.5 -31.5t12.5 -32t30.5 -14.5q6 0 10 -4.5t3.5 -10t-5 -9.5t-9.5 -4q-35 2 -55 31h-63q-31 0 -52.5 21.5t-21.5 52.5q0 25 15.5 45t40.5 26q-1 2 -1 4q0 37 26.5 63t62.5 26q16 0 30.5 -5.5t26.5 -15t20 -23.5
q21 13 46 13q13 0 27 -4v3v3q5 33 28.5 55.5t56.5 26.5q8 1 12.5 -5.5t1.5 -13.5q-4 -9 -5 -16q-4 -28 13 -50.5t45 -26.5q7 -1 17 0q8 1 12.5 -5.5t1.5 -13.5q-11 -27 -35 -43zM178 273v3q0 33 21 58q-17 34 -55 34q-25 0 -43 -18t-18 -43q0 -6 1.5 -12.5t-2.5 -11.5
t-10 -5q-19 -1 -31.5 -14.5t-12.5 -31.5q0 -8 2 -15t6.5 -12.5t10 -10t12.5 -7t15 -2.5h50q-2 9 -2 16q0 17 7.5 32t20 25t28.5 15zM363 320q35 0 59 -25q11 6 18 15q-38 6 -61 37t-18 69q-34 -16 -39 -53q-1 -8 0 -17q14 -11 23 -28q9 2 18 2zM254 157q0 6 4 10t10 4t10 -4
t4 -10t-4 -10t-10 -4t-10 4t-4 10zM320 157q0 6 4 10t10 4q4 0 7 -2t5 -5t2 -7q0 -6 -4 -10t-10 -4q-4 0 -7 2t-5 5t-2 7zM309 106q-6 0 -10 4t-4 9.5t4 9.5t10 4t10 -4t4 -9q0 -4 -2 -7t-5 -5t-7 -2zM297 83q0 -6 -4 -10t-9 -4q-4 0 -7 2t-5 5t-2 7q0 5 4 9t10 4
q3 0 6.5 -1.5t5 -5t1.5 -6.5zM412 157q0 -6 -4 -10t-10 -4q-3 0 -6.5 2t-5 5t-1.5 7t1.5 7t5 5t6.5 2q6 0 10 -4t4 -10zM387 119.5q0 -5.5 -4 -9.5t-9.5 -4t-9.5 4t-4 9.5t4 9.5t9.5 4t9.5 -4t4 -9.5zM362 82.5q0 -5.5 -4 -9.5t-10 -4t-10 4t-4 9.5t4 9.5t10 4t10 -4t4 -9.5
zM272 45.5q0 -3.5 -2 -7t-5 -5t-7 -1.5q-5 0 -9 4t-4 9.5t4 9.5t9 4q4 0 7 -2t5 -5t2 -6.5zM336 45q0 -5 -4 -9t-9 -4q-4 0 -7 1.5t-5 5t-2 6.5q0 6 4 10t10 4q3 0 6.5 -2t5 -5t1.5 -7zM165 82.5q0 -5.5 -4 -9.5t-9 -4q-3 0 -5.5 1t-4.5 3t-3 4.5t-1 5.5q0 5 4 9t9.5 4
t9.5 -4t4 -9.5zM243 106q-6 0 -10 4t-4 9.5t4 9.5t9.5 4t9.5 -4t4 -9q0 -4 -1.5 -7t-5 -5t-6.5 -2zM231 83q0 -3 -1 -5.5t-3 -4.5t-4.5 -3t-4.5 -1q-6 0 -10 4t-4 9.5t4 9.5t9.5 4t9.5 -4t4 -9zM140 45q0 -5 -4 -9t-10 -4q-3 0 -6.5 1.5t-5 5t-1.5 6.5q0 6 4 10t9 4
q3 0 5.5 -1t4.5 -3t3 -4.5t1 -5.5zM206 45.5q0 -5.5 -4 -9.5t-9.5 -4t-9.5 4t-4 9.5t4 9.5t9.5 4t9.5 -4t4 -9.5zM112.5 106q-5.5 0 -9.5 4t-4 9.5t4 9.5t9.5 4t9.5 -4t4 -9.5t-4 -9.5t-9.5 -4zM101 83q0 -6 -4 -10t-9.5 -4t-9.5 4t-4 10q0 3 1.5 6.5t5 5t7 1.5t6.5 -1.5
t5 -5t2 -6.5zM76 45.5q0 -5.5 -4 -9.5t-10 -4q-3 0 -5.5 1t-4 2.5t-3 4.5t-1.5 5q0 6 4 10t10 4t10 -4t4 -9.5z" />
    <glyph glyph-name="weather-44" unicode="&#xf16f;" 
d="M442 275q29 -2 49.5 -23t20.5 -51q0 -10 -2.5 -19.5t-7.5 -17.5t-12 -15t-15 -11.5t-17.5 -7.5t-19.5 -3q-6 0 -10 4t-4 10q0 4 2 7t5 5t7 2q13 0 23.5 6t16.5 17t6 23q0 19 -13.5 32.5t-32.5 13.5h-8q-12 -2 -15.5 9t-11.5 19.5t-18 13t-22 4.5q-10 0 -20 -4
q-6 -3 -11 -0.5t-7 8.5q-7 18 -23 29.5t-35 11.5q-26 0 -44 -18t-18 -44q0 -6 2 -12q1 -6 -3 -11t-10 -6q-19 -1 -31.5 -14t-12.5 -31.5t12.5 -32t30.5 -14.5q6 0 10 -4.5t3.5 -10t-5 -9.5t-9.5 -4q-35 2 -55 31h-63q-31 0 -52.5 21.5t-21.5 52.5q0 25 15.5 45t40.5 26
q-1 2 -1 4q0 37 26.5 63t62.5 26q24 0 44.5 -11.5t32.5 -32.5q21 13 46 13q13 0 27 -4v3v3q5 33 28.5 55.5t56.5 26.5q8 1 12.5 -5.5t1.5 -13.5q-4 -9 -5 -16q-4 -28 13 -50.5t45 -26.5q7 -1 17 0q8 1 12.5 -5.5t1.5 -13.5q-11 -27 -35 -43zM178 273v3q0 33 21 58
q-17 34 -55 34q-25 0 -43 -18t-18 -43q0 -6 1.5 -12.5t-2.5 -11.5t-10 -5q-19 -1 -31.5 -14.5t-12.5 -31.5q0 -8 2 -15t6.5 -12.5t10 -10t12.5 -7t15 -2.5h50q-2 9 -2 16q0 17 7.5 32t20 25t28.5 15zM363 320q35 0 59 -25q11 6 18 15q-38 6 -61 37t-18 69q-34 -16 -39 -53
q-1 -8 0 -17q14 -11 23 -28q9 2 18 2zM254 157q0 6 4 10t10 4t10 -4t4 -10t-4 -10t-10 -4t-10 4t-4 10zM320 157q0 6 4 10t10 4q4 0 7 -2t5 -5t2 -7q0 -6 -4 -10t-10 -4t-10 4t-4 10zM309 106q-6 0 -10 4t-4 9.5t4 9.5t10 4t10 -4t4 -9q0 -4 -2 -7t-5 -5t-7 -2zM297 83
q0 -6 -4 -10t-9 -4q-4 0 -7 2t-5 5t-2 7q0 5 4 9t10 4q3 0 6.5 -1.5t5 -5t1.5 -6.5zM412 157q0 -6 -4 -10t-9.5 -4t-9.5 4t-4 10q0 4 1.5 7t5 5t6.5 2q6 0 10 -4t4 -10zM387 119.5q0 -5.5 -4 -9.5t-9.5 -4t-9.5 4t-4 9.5t4 9.5t9.5 4t9.5 -4t4 -9.5zM362 82.5
q0 -5.5 -4 -9.5t-10 -4t-10 4t-4 9.5t4 9.5t10 4t10 -4t4 -9.5zM272 45.5q0 -3.5 -2 -7t-5 -5t-7 -1.5q-2 0 -4.5 1t-4.5 2.5t-3 4.5t-1 5q0 6 4 10t9 4q4 0 7 -2t5 -5t2 -6.5zM336 45q0 -5 -4 -9t-9 -4q-4 0 -7 1.5t-5 5t-2 6.5q0 6 4 10t10 4q3 0 6.5 -2t5 -5t1.5 -7z
M165 82.5q0 -5.5 -4 -9.5t-9 -4q-3 0 -5.5 1t-4.5 3t-3 4.5t-1 5.5q0 5 4 9t9.5 4t9.5 -4t4 -9.5zM243 106q-6 0 -10 4t-4 9.5t4 9.5t9.5 4t9.5 -4t4 -9q0 -4 -1.5 -7t-5 -5t-6.5 -2zM231 83q0 -3 -1 -5.5t-3 -4.5t-4.5 -3t-4.5 -1q-6 0 -10 4t-4 9.5t4 9.5t9.5 4t9.5 -4
t4 -9zM140 45q0 -5 -4 -9t-9.5 -4t-9.5 4t-4 9.5t4 9.5t9 4q3 0 5.5 -1t4.5 -3t3 -4.5t1 -5.5zM206 45.5q0 -5.5 -4 -9.5t-9.5 -4t-9.5 4t-4 9.5t4 9.5t9.5 4t9.5 -4t4 -9.5zM112.5 106q-5.5 0 -9.5 4t-4 9.5t4 9.5t9.5 4t9.5 -4t4 -9.5t-4 -9.5t-9.5 -4zM101 83
q0 -6 -4 -10t-9.5 -4t-9.5 4t-4 10q0 3 1.5 6.5t5 5t7 1.5t6.5 -1.5t5 -5t2 -6.5zM76 45q0 -5 -4 -9t-10 -4t-10 4t-4 9q0 4 2 7t5 5t7 2t7 -2t5 -5t2 -7z" />
    <glyph glyph-name="weather-45" unicode="&#xf170;" 
d="M412 159q9 0 15.5 -6.5t6.5 -15.5t-6.5 -15.5t-15.5 -6.5h-390q-9 0 -15.5 6.5t-6.5 15.5t6.5 15.5t15.5 6.5h48q8 54 50 90.5t97.5 36.5t97 -36.5t49.5 -90.5h48zM217 242q-25 0 -46.5 -11t-36 -30t-19.5 -42h205q-8 36 -36.5 59.5t-66.5 23.5zM348 89q9 0 15.5 -6.5
t6.5 -15.5t-6.5 -15.5t-15.5 -6.5h-261q-10 0 -16.5 6.5t-6.5 15.5q0 6 3 11t8.5 8t11.5 3h261zM282 20q9 0 15.5 -6.5t6.5 -16.5q0 -6 -3 -11t-8 -8t-11 -3h-129q-10 0 -16 6.5t-6 16t6 16t16 6.5h129zM217 318q-9 0 -15.5 6.5t-6.5 15.5v56q0 9 6.5 15.5t15.5 6.5
q6 0 11 -3t8 -8t3 -11v-56q0 -9 -6.5 -15.5t-15.5 -6.5zM58 265l-40 40q-6 6 -6 15t6.5 15.5t15.5 6.5t15 -6l40 -40q6 -6 6.5 -15t-6 -15.5t-16 -6.5t-15.5 6zM361 259q-9 0 -15.5 6t-6.5 15.5t6 15.5l40 40q6 6 15.5 6t16 -6.5t6.5 -15.5t-7 -15l-39 -40q-7 -6 -16 -6z
" />
    <glyph glyph-name="xtype-video-watchcnnlive" unicode="&#xf171;" 
d="M280 447q91 -8 157 -74t74 -158q7 -78 -29.5 -145t-103.5 -103.5t-145 -29.5q-92 8 -158 74t-74 157q-7 79 29.5 146t103.5 103.5t146 29.5zM282 -42q81 9 140 68t68 140q7 72 -25 134t-92.5 96.5t-131.5 29.5q-88 -5 -150.5 -68t-68.5 -151q-5 -71 29.5 -131.5
t96.5 -92.5t134 -25zM272 435q60 -4 110.5 -35t81.5 -81.5t35 -110.5q5 -72 -29.5 -133.5t-95.5 -95.5t-133 -30q-91 6 -156.5 71t-71.5 156q-4 72 30 133.5t95.5 95.5t133.5 30zM131 228h11l12 -49l12 49h12l13 -49l12 49h11l-18 -64h-10l-13 48l-13 -48h-12zM255 175
q0 -3 2 -3h3v-8q-3 -1 -7 -1q-6 0 -7 6q-6 -6 -16 -6q-16 0 -16 14q0 12 18 14q1 1 4 1q10 1 10 6q0 6 -10 6q-9 0 -10 -7h-10q0 15 21 15q18 0 18 -13v-24zM244 188q-1 -1 -12 -3q-9 -1 -9 -8q0 -5 10 -5q11 0 11 8v8zM260 211h8v14h10v-14h9v-8h-9v-25q0 -6 5 -6h4v-8h-3
h-3q-8 0 -10.5 2.5t-2.5 8.5v28h-8v8zM324 195q-1 9 -11 9q-13 0 -13 -16t12 -16q10 0 11 10h10q-2 -18 -21 -18q-10 0 -16 6.5t-6 17.5q0 24 23 24q19 0 21 -16h-10v-1zM341 228h10v-23q4 7 14 7q17 0 17 -16v-32h-10v29q0 11 -9 11q-12 0 -12 -13v-27h-10v64zM134 115
q-3 12 -15 12q-18 0 -18 -22.5t18 -22.5q13 0 15 15h11q-1 -5 -3 -9.5t-5 -7.5t-8 -5t-10 -2q-13 0 -20.5 9t-7.5 22.5t7.5 22.5t20.5 9q23 0 25 -21h-10zM151 134h11l27 -43v43h9v-59h-10l-27 43v-43h-10v59zM209 134h11l26 -43v43h10v-59h-11l-27 43v-43h-9v59zM287 134
h10v-50h30v-9h-40v59zM331 134h9v-9h-9v9zM331 118h9v-43h-9v43zM344 118h11l10 -34l11 34h9l-15 -43h-11zM397 94q0 -13 11 -13q9 0 11 7h9q-3 -14 -20 -14q-6 0 -11 2.5t-7.5 8t-2.5 11.5t2.5 11t7 8t11.5 3q9 0 15 -7.5t5 -17.5h-31v1zM419 100q-2 11 -11 11
q-11 0 -12 -11h23zM222 279v96q0 7 6 3l83 -48q5 -3 0 -6l-83 -48q-6 -4 -6 3z" />
    <glyph glyph-name="y01-star-outline" unicode="&#xf172;" 
d="M398 -51q-7 0 -12 3l-130 75l-130 -75q-14 -8 -27.5 2t-9.5 26l29 147l-109 99q-12 11 -8 27t21 17l149 20l62 131q7 15 23 15t23 -15l62 -131l149 -20q15 -1 21 -18q5 -15 -8 -26l-109 -99l29 -147q4 -16 -10 -26q-6 -5 -15 -5zM256 74l122 -71l-28 139l103 93l-139 18
l-58 122l-58 -122l-139 -18l103 -93l-28 -139z" />
    <glyph glyph-name="y02-star-solid" unicode="&#xf173;" 
d="M398 -51q-7 0 -12 3l-130 75l-130 -75q-14 -8 -27.5 2t-9.5 26l29 147l-109 99q-12 11 -8 27t21 17l149 20l62 131q7 15 23 15t23 -15l62 -131l149 -20q15 -1 21 -18q5 -15 -8 -26l-109 -99l29 -147q4 -16 -10 -26q-6 -5 -15 -5z" />
    <glyph glyph-name="y03-social-messenger" unicode="&#xf174;" 
d="M256 -26q-41 0 -80 12l-98 -50v105q-78 70 -78 170q0 98 75 167.5t181 69.5t181 -69.5t75 -167.5t-75 -167.5t-181 -69.5zM295 207l-66 69l-140 -147l128 69l66 -68l140 147z" />
    <glyph glyph-name="y04-social-messenger-bolt" unicode="&#xf175;" 
d="M0 79l212 226l102 -102l198 106l-212 -234l-102 110z" />
    <glyph glyph-name="y05-entertainment-arrow-left" unicode="&#xf176;" 
d="M109 190l179 -179q13 -11 13.5 -28.5t-9.5 -30.5q-13 -16 -34 -16q-18 0 -30 12l-218 218q-10 11 -10 24t10 24l220 220q14 14 31 14t30.5 -13.5t13.5 -31t-13 -30.5z" />
    <glyph glyph-name="y06-entertainment-arrow-right" unicode="&#xf177;" 
d="M297 217q9 -10 8.5 -24t-10.5 -20l-221 -221q-12 -12 -30 -12t-30 12t-12 30t12 30l183 183l-179 179q-13 12 -14 29.5t10 30.5q12 14 31 14.5t33 -12.5z" />
    <glyph glyph-name="y07-entertainment-menu" unicode="&#xf178;" 
d="M0 448h217v-217h-217v217zM0 161h217v-217h-217v217zM287 448h217v-217h-217v217zM287 161h217v-217h-217v217z" />
    <glyph glyph-name="y08-entertainment-search" unicode="&#xf179;" 
d="M439 388v0q60 -58 60 -147q0 -86 -60 -146q-63 -60 -146 -60q-57 0 -99 24q3 -11 -6 -21q-5 -7 -14 -7q-8 0 -15 7l-9 10l-106 -106q-8 -9 -19 -9t-19.5 8.5t-8.5 19.5t9 19l102 104l2 2l-8 7q-15 16 0 31q5 8 15 8q-31 51 -31 109q0 86 60 147q63 60 147 60
q86 0 146 -60zM407.5 128q47.5 48 47.5 115.5t-47.5 115t-115 47.5t-115 -47.5t-47.5 -115t47.5 -115.5t115 -48t115 48z" />
    <glyph glyph-name="y09-entertainment-type-gallery" unicode="&#xf17a;" 
d="M477 381q13 0 21.5 -9t7.5 -23v-267q0 -34 -33 -34h-439q-14 0 -24.5 11.5t-10.5 26.5v262q0 16 9.5 25.5t25.5 9.5h11v23h57v-25h22l62 60q4 7 15 7h110q10 0 17 -7l63 -60h86zM458 333l-70 1q-10 0 -17 8l-68 60h-93l-69 -63q-6 -6 -15 -6h-79v-236h411v236zM257 361
q54 0 90.5 -37.5t34.5 -89.5q0 -51 -36.5 -88.5t-88.5 -37.5q-51 0 -88 37t-37 89t37 89.5t88 37.5zM257 146q37 0 62.5 25.5t25.5 61.5t-26 62t-61.5 26t-61.5 -26t-26 -61.5t26 -61.5t61 -26z" />
    <glyph glyph-name="y10-entertainment-type-video" unicode="&#xf17b;" 
d="M0 448l437 -256l-437 -254v510zM59 346v-304l261 152z" />
    <glyph glyph-name="y11-type-video360" unicode="&#xf17c;" 
d="M256 448q106 0 181 -74.5t76 -180.5v-1q0 -106 -75.5 -181.5t-181.5 -75.5t-181 75.5t-75 181.5t75 181t181 75zM418.5 354q-17.5 17 -46.5 34t-52 24q15 -20 29.5 -52t19.5 -57q16 -3 36 -10.5t39.5 -17.5t32.5 -20q-7 24 -24 53t-34.5 46zM355 193v1q0 44 -8 88
q-45 9 -91 9t-91 -9q-8 -44 -8 -89t8 -89q44 -8 89 -8h1.5h1.5q45 0 90 8q8 44 8 89zM256 421q-36 0 -65 -60q-12 -24 -19 -51q42 7 84 7t84 -7q-7 27 -19 51q-29 60 -65 60zM94 354q-12 -11 -23.5 -28.5t-21 -36t-13.5 -34.5q20 15 51 29t56 19q5 25 19.5 57t29.5 52
q-23 -7 -52 -24t-46 -34zM87 256q-61 -30 -61 -63q0 -35 61 -65q24 -11 51 -18q-7 41 -7 82t7 82q-27 -7 -51 -18zM93.5 29.5q17.5 -17.5 46.5 -34.5t52 -23q-15 20 -29.5 52t-19.5 57q-25 5 -56 19t-51 29q6 -24 23 -53t34.5 -46.5zM256 -38q35 0 65 60q12 25 19 52
q-41 -7 -83 -7h-1q-42 0 -84 7q7 -27 19 -52q30 -60 65 -60zM418 30q18 17 35 46t24 53q-13 -10 -32 -20t-39 -17.5t-36 -10.5q-6 -25 -20 -57t-30 -52q24 6 52.5 23t45.5 35zM426 128h-1q59 29 61 65q0 35 -60 64q-24 11 -51 18q7 -41 7 -82q0 -42 -8 -83q27 7 52 18z" />
    <glyph glyph-name="y12-play-arrow" unicode="&#xf17d;" 
d="M77 -36l329 196q25 15 25 44t-26 44l-328 193q-26 15 -51.5 0.5t-25.5 -44.5v-389q0 -29 25.5 -44t51.5 0v0z" />
    <glyph glyph-name="y13-type-gallery-v2" unicode="&#xf17e;" 
d="M253 178q-28 0 -47.5 20t-19.5 48q0 13 5 25.5t14 22t21.5 14.5t26.5 5q28 0 47.5 -19.5t19.5 -47.5t-19.5 -48t-47.5 -20zM253 347q-42 0 -71.5 -29.5t-29.5 -71.5t29.5 -71.5t71.5 -29.5t71.5 29.5t29.5 71.5t-29.5 71.5t-71.5 29.5zM472 389q14 0 23.5 -11.5
t9.5 -26.5v-240q0 -14 -10 -24t-23 -10h-439q-13 0 -23 10t-10 24v245q0 13 9.5 23t24.5 10h99l23 42q9 17 31 17h133q21 0 29 -17l23 -42h100z" />
  </font>
</defs>
</svg>
