<svg xmlns="http://www.w3.org/2000/svg" viewBox="0 0 219.8 36.4"><g fill="#FFF"><path d="M21.8 25c-.6 1-1.2 1.7-1.7 2.1-.6.5-1.3.9-2.1 1.2-.8.3-1.7.5-2.6.5-1.8 0-3.3-.6-4.6-1.9-1.1-1.2-1.8-2.2-1.9-4h16.6V22c0-2.6-.7-4.8-2.1-6.6-2-2.5-4.6-3.8-7.9-3.8-3.2 0-5.8 1.2-7.7 3.7-1.5 1.9-2.3 4.1-2.3 6.5 0 2.6.9 4.9 2.7 7 1.8 2.1 4.3 3.1 7.4 3.1 1.4 0 2.7-.2 3.8-.6 1.1-.4 2.2-1.1 3.1-1.9.8-.7 1.5-1.7 2.1-2.8L21.8 25zm-10.6-8.6c1.2-1.1 2.6-1.6 4.3-1.6 1 0 2 .2 2.9.7.9.4 1.7 1 2.2 1.7.5.6.9 1.6 1.1 2.7H9.4c.2-1.5 1-2.8 1.8-3.5zm58.6 8.5c-.6 1-1.2 1.8-1.7 2.2-.6.5-1.3.9-2.1 1.2-.8.3-1.7.5-2.6.5-1.8 0-3.3-.6-4.6-1.9-1.1-1.2-1.8-2.2-1.9-4h16.6V22c0-2.6-.7-4.8-2.1-6.6-2-2.5-4.6-3.8-7.9-3.8-3.2 0-5.8 1.2-7.7 3.7-1.5 1.9-2.3 4.1-2.3 6.5 0 2.6.9 4.9 2.7 7 1.8 2.1 4.3 3.1 7.4 3.1 1.4 0 2.7-.2 3.8-.6 1.1-.4 2.2-1.1 3.1-1.9.8-.7 1.5-1.7 2.2-2.9l-2.9-1.6zm-10.7-8.5c1.2-1.1 2.6-1.6 4.3-1.6 1 0 2 .2 2.9.7.9.4 1.7 1 2.2 1.7.5.6.9 1.6 1.1 2.7H57.3c.2-1.5 1.1-2.8 1.8-3.5zm123.4 8.5c-.6 1-1.2 1.7-1.7 2.2-.6.5-1.3.9-2.1 1.2-.8.3-1.7.5-2.6.5-1.8 0-3.3-.6-4.6-1.9-1.1-1.2-1.8-2.2-1.9-4h16.6V22c0-2.6-.7-4.8-2.1-6.6-2-2.5-4.6-3.8-7.9-3.8-3.2 0-5.8 1.2-7.7 3.7-1.5 1.9-2.3 4.1-2.3 6.5 0 2.6.9 4.9 2.7 7 1.8 2.1 4.3 3.1 7.4 3.1 1.4 0 2.7-.2 3.8-.6 1.1-.4 2.2-1.1 3.1-1.9.8-.7 1.5-1.7 2.2-2.9l-2.9-1.6zm-10.7-8.5c1.2-1.1 2.6-1.6 4.3-1.6 1 0 2 .2 2.9.7.9.4 1.7 1 2.2 1.7.5.6.9 1.6 1.1 2.7H170c.2-1.5 1.1-2.8 1.8-3.5zm-125.3 15V5.2h3.4v6.9h3.7v3h-3.7v16.3zm29 0V12.1h3.4v1.8c.5-.6.8-.8 1.3-1.2.9-.6 4.6-.6 4.6-.6l2.5.1 2.6 2.9h-4.7s-2.9-.3-4.2.6c-1 .7-1.4 1.3-1.8 2.2-.4.9-.4 2.2-.4 4.1v9.5h-3.3z"/><path d="M85.8 31.4V5.2h3.3v6.9h3.8v3h-3.8v16.3zm16.9.5c-2.7 0-5.1-1-7-3-1.9-2-2.9-4.4-2.9-7.2s1-5.2 2.9-7.1c1.9-2 4.3-2.8 7.1-2.8 3.9 0 6.5 1.9 7.3 2.7 1.5 1.5 2.8 3.6 2.8 7.2v9.8h-3.3V29c-.8.8-1.7 1.5-2.7 1.9-1.2.7-2.6 1-4.2 1zm.3-17.1c-1.2 0-2.4.3-3.4.9-1 .6-1.9 1.5-2.5 2.6-.6 1.1-.9 2.3-.9 3.5 0 1.2.3 2.4.9 3.5s1.5 2 2.5 2.6c1 .6 2.2.9 3.4.9 1.2 0 2.4-.3 3.5-.9 1.1-.6 1.9-1.4 2.5-2.5.6-1 .9-2.2.9-3.5 0-2-.6-3.7-2-5-1.4-1.4-3-2.1-4.9-2.1zm13.1 16.6V12.1h3.3v19.4h-3.3zm1.6-22.1c-.7 0-1.2-.2-1.7-.7-.5-.5-.7-1-.7-1.7s.2-1.2.7-1.7c.5-.5 1-.7 1.7-.7s1.2.2 1.7.7c.5.5.7 1.1.7 1.7 0 .7-.2 1.2-.7 1.7-.4.5-1 .7-1.7.7zm89.4 22.1V5.2h3.3v6.9h3.8v3h-3.8v16.3z"/></g><path fill="#FFF" d="M42.9 31.4h-3.5V18.9c0-2.3-1.9-4.2-4.2-4.2s-4.3 1.9-4.3 4.2v12.6h-3.5V19.1c0-4.3 3.3-7.6 7.6-7.6s7.9 3.3 7.9 7.6v12.3zm95.6 0H135V18.9c0-2.3-1.9-4.2-4.2-4.2s-4.2 1.9-4.2 4.2v12.6H123V19.1c0-4.3 3.3-7.6 7.6-7.6s7.9 3.3 7.9 7.6v12.3zm64.9 0h-3.5V18.9c0-2.3-1.9-4.2-4.2-4.2s-4.2 1.9-4.2 4.2v12.6H188V19.1c0-4.3 3.5-7.5 7.8-7.5s7.8 3.2 7.8 7.5v12.3zm-48.7.1h-3.5V17.4c0-1.6-1.3-2.9-2.9-2.9-1.6 0-2.9 1.3-2.9 2.9v14.1h-3.5V17.6c0-3.5 2.9-6.2 6.4-6.2 3.5 0 6.4 2.4 6.4 5.9v14.2z"/><path fill="#FFF" d="M164.1 31.5h-3.5V17.4c0-1.6-1.3-2.9-2.9-2.9-1.6 0-2.9 1.3-2.9 2.9v14.1h-3.5V17.4c0-3.5 2.9-5.9 6.4-5.9 3.5 0 6.4 2.6 6.4 6.2v13.8z"/></svg>