<svg width="32" height="19" xmlns="http://www.w3.org/2000/svg"><path d="M30.306 1.904c-.973-.9-2.574-1.35-4.806-1.35H12.593L5.568 14.18h-.101L4.072.554H.116l2.181 17.991h4.666L15.07 3.608h9.721c1.048 0 1.83.172 2.346.517.515.345.773.87.773 1.577 0 1.01-.308 1.75-.925 2.22-.618.472-1.534.707-2.752.707H16.62l-2.125 9.916h3.982l1.47-6.838h3.399c.676 0 1.2.072 1.572.215.372.143.63.357.774.643.143.287.206.656.19 1.11l-.051 2.801c-.017.673.05 1.363.203 2.07h4.057a10.848 10.848 0 0 1-.24-1.11c-.043-.287-.064-.699-.064-1.237l-.026-2.725c-.017-.757-.16-1.396-.43-1.918-.271-.521-.745-.934-1.42-1.236 1.267-.387 2.226-1.01 2.877-1.868.651-.858.977-1.875.977-3.053 0-1.43-.486-2.594-1.458-3.495" fill="#FEFEFE" fill-rule="evenodd"/></svg>