<svg xmlns="http://www.w3.org/2000/svg" viewBox="0 0 219.8 36.4"><path d="M25.6 21.9c0-2.6-.7-4.8-2.1-6.6-2-2.5-4.6-3.8-7.9-3.8-3.2 0-5.8 1.2-7.7 3.7-1.5 1.9-2.3 4.1-2.3 6.5 0 2.6.9 4.9 2.7 7 1.8 2.1 4.3 3.1 7.4 3.1 1.4 0 2.7-.2 3.8-.6 1.1-.4 2.2-1.1 3.1-1.9.8-.7 1.5-1.7 2.1-2.8L21.8 25c-.6 1-1.2 1.7-1.7 2.1-.6.5-1.3.9-2.1 1.2-.8.3-1.7.5-2.6.5-1.8 0-3.3-.6-4.6-1.9-1.1-1.2-1.8-2.2-1.9-4h16.6l.1-1zm-16.2-2c.2-1.5 1.1-2.8 1.8-3.4 1.2-1.1 2.6-1.6 4.3-1.6 1 0 2 .2 2.9.7.9.4 1.7 1 2.2 1.7.5.6.9 1.6 1.1 2.7H9.4zm64.1 2c0-2.6-.7-4.8-2.1-6.6-2-2.5-4.6-3.8-7.9-3.8-3.2 0-5.8 1.2-7.7 3.7-1.5 1.9-2.3 4.1-2.3 6.5 0 2.6.9 4.9 2.7 7 1.8 2.1 4.3 3.1 7.4 3.1 1.4 0 2.7-.2 3.8-.6 1.1-.4 2.2-1.1 3.1-1.9.8-.7 1.5-1.7 2.2-2.9l-2.8-1.6c-.6 1-1.2 1.8-1.7 2.2-.6.5-1.3.9-2.1 1.2-.8.3-1.7.5-2.6.5-1.8 0-3.3-.6-4.6-1.9-1.1-1.2-1.8-2.2-1.9-4h16.6l-.1-.9zm-16.2-2c.2-1.5 1.1-2.8 1.8-3.4 1.2-1.1 2.6-1.6 4.3-1.6 1 0 2 .2 2.9.7.9.4 1.7 1 2.2 1.7.5.6.9 1.6 1.1 2.7H57.3zm128.9 2c0-2.6-.7-4.8-2.1-6.6-2-2.5-4.6-3.8-7.9-3.8-3.2 0-5.8 1.2-7.7 3.7-1.5 1.9-2.3 4.1-2.3 6.5 0 2.6.9 4.9 2.7 7 1.8 2.1 4.3 3.1 7.4 3.1 1.4 0 2.7-.2 3.8-.6 1.1-.4 2.2-1.1 3.1-1.9.8-.7 1.5-1.7 2.2-2.9l-2.8-1.6c-.6 1-1.2 1.7-1.7 2.2-.6.5-1.3.9-2.1 1.2-.8.3-1.7.5-2.6.5-1.8 0-3.3-.6-4.6-1.9-1.1-1.2-1.8-2.2-1.9-4h16.6l-.1-.9zm-16.2-2c.2-1.5 1.1-2.8 1.8-3.4 1.2-1.1 2.6-1.6 4.3-1.6 1 0 2 .2 2.9.7.9.4 1.7 1 2.2 1.7.5.6.9 1.6 1.1 2.7H170zM53.6 12.1h-3.7V5.2h-3.4v26.2h3.4V15.1h3.7zm39.3 0h-3.8V5.2h-3.3V12h-1s-3.8 0-4.6.6c-.5.4-.8.6-1.3 1.2V12h-3.4v19.4h3.4V22c0-1.9 0-3.2.4-4.1.4-1 .8-1.6 1.8-2.2 1.3-.8 4.2-.6 4.2-.6h.6v16.4h3.3V15.1H93v-3zm9.9-.3c-2.7 0-5.1.8-7.1 2.8-1.9 2-2.9 4.4-2.9 7.1 0 2.8 1 5.3 2.9 7.2 1.9 2 4.3 3 7 3 1.5 0 3-.3 4.3-1 1-.5 1.8-1.1 2.7-1.9v2.4h3.3v-9.8c0-3.6-1.4-5.7-2.8-7.2-.8-.8-3.5-2.6-7.4-2.6zm6.1 13.6c-.6 1-1.4 1.9-2.5 2.5-1.1.6-2.2.9-3.5.9-1.2 0-2.3-.3-3.4-.9-1-.6-1.9-1.5-2.5-2.6s-.9-2.3-.9-3.5c0-1.2.3-2.4.9-3.5.6-1.1 1.5-2 2.5-2.6 1-.6 2.2-.9 3.4-.9 1.9 0 3.5.7 4.8 2 1.3 1.4 2 3 2 5 .1 1.4-.2 2.6-.8 3.6zm8.8-20.9c-.7 0-1.2.2-1.7.7-.5.5-.7 1.1-.7 1.7 0 .7.2 1.2.7 1.7.5.5 1 .7 1.7.7s1.2-.2 1.7-.7c.5-.5.7-1 .7-1.7s-.2-1.3-.7-1.7c-.4-.5-1-.7-1.7-.7zm-1.6 7.6h3.3v19.4h-3.3zm94.3 0V5.2h-3.3v26.2h3.3V15.1h3.8v-3zm-175.5-.6c-4.3 0-7.6 3.3-7.6 7.6v12.3h3.5V18.9c0-2.3 1.9-4.2 4.2-4.2s4.2 1.9 4.2 4.2v12.6h3.5V19.1c.2-4.3-3.5-7.6-7.8-7.6zm95.7 0c-4.3 0-7.6 3.3-7.6 7.6v12.3h3.5V18.9c0-2.3 1.9-4.2 4.2-4.2s4.2 1.9 4.2 4.2v12.6h3.5V19.1c.1-4.3-3.5-7.6-7.8-7.6zm65 .1c-4.3 0-7.8 3.2-7.8 7.5v12.3h3.5V18.9c0-2.3 1.9-4.2 4.2-4.2s4.2 1.9 4.2 4.2v12.6h3.5V19.1c.2-4.3-3.3-7.5-7.6-7.5zm-37.9-.2c-1.8 0-3.5.7-4.7 1.8-1.2-1.1-2.8-1.8-4.7-1.8-3.5 0-6.4 2.6-6.4 6.2v13.9h3.5V17.4c0-1.6 1.3-2.9 2.9-2.9 1.6 0 2.9 1.3 2.9 2.9v14.1h3.5V17.4c0-1.6 1.3-2.9 2.9-2.9 1.6 0 2.9 1.3 2.9 2.9v14.1h3.5V17.6c.1-3.5-2.8-6.2-6.3-6.2z" fill="#001A2C"/></svg>