<svg width="113" height="40" xmlns="http://www.w3.org/2000/svg"><g fill="none"><path d="M10.616 13.842a7.305 7.305 0 0 0-2.898.573c-.787.338-1.455.806-2.229 1.567-.6.59-1.055 1.284-1.475 2.254-.372.856-.561 1.806-.561 2.823 0 1.094.168 2.012.512 2.805.339.785.729 1.608 1.426 2.293a7.554 7.554 0 0 0 2.327 1.548c.886.38 1.861.573 2.898.573 1.063 0 2.038-.192 2.896-.572a6.737 6.737 0 0 0 2.207-1.544 6.594 6.594 0 0 0 1.387-2.287 8.267 8.267 0 0 0 .478-2.816c0-.99-.161-1.937-.478-2.814a6.57 6.57 0 0 0-1.387-2.287 6.73 6.73 0 0 0-2.207-1.544c-.857-.38-1.831-.572-2.896-.572zM.982 39.398V12.035h2.511v2.747l.589-.629c.176-.187.365-.365.562-.53a8.38 8.38 0 0 1 1.815-1.16 9.09 9.09 0 0 1 2.052-.678 10.57 10.57 0 0 1 2.105-.22c1.395 0 2.7.242 3.874.718a9.186 9.186 0 0 1 3.066 2.016 9.231 9.231 0 0 1 2.013 3.073c.476 1.179.716 2.485.716 3.884s-.24 2.705-.717 3.883c-.513 1.27-1.27 2.134-2.011 2.877a9.15 9.15 0 0 1-3.066 2.015c-1.174.477-2.477.718-3.875.718-.684 0-1.393-.073-2.105-.218-.94-.191-1.652-.406-2.179-.653-.67-.316-1.698-.974-2.258-1.53l-.58-.578v11.628H.981zm91.536-8.746c-1.398 0-2.708-.242-3.894-.717a8.898 8.898 0 0 1-3.068-2.017 9.342 9.342 0 0 1-1.99-3.072c-.476-1.176-.717-2.482-.717-3.884 0-1.4.241-2.706.717-3.882a9.348 9.348 0 0 1 1.99-3.073 8.938 8.938 0 0 1 3.068-2.017c1.188-.477 2.499-.717 3.894-.717 1.348 0 2.616.282 3.768.84a9.91 9.91 0 0 1 3.081 2.35l.132.147-2.163 1.624-.109-.123a7.987 7.987 0 0 0-2.177-1.742 5.313 5.313 0 0 0-2.532-.624c-1.065 0-2.04.192-2.897.572a6.716 6.716 0 0 0-2.206 1.544 6.57 6.57 0 0 0-1.388 2.286 8.26 8.26 0 0 0-.476 2.815c0 .995.16 1.942.476 2.816.316.872.783 1.64 1.388 2.287a6.737 6.737 0 0 0 2.206 1.543c.857.38 1.832.573 2.897.573.954 0 1.838-.223 2.628-.663a6.964 6.964 0 0 0 2.074-1.775l.112-.143 2.077 1.718-.115.139c-.897 1.084-1.93 1.897-3.07 2.416a8.888 8.888 0 0 1-3.706.78m-23.198-.258c-.853 0-1.599-.13-2.217-.385-.621-.257-1.13-.609-1.511-1.046a4.094 4.094 0 0 1-.837-1.534 6.464 6.464 0 0 1-.262-1.87V14.31h-3.906v-2.275h3.906V6.831h2.701v5.205h5.155v2.275h-5.155V25.56c0 .755.206 1.344.61 1.75.406.408.98.615 1.71.615a5.21 5.21 0 0 0 1.303-.172c.44-.112.872-.26 1.281-.44l.228-.1.23 2.501-.132.046c-.441.156-.96.302-1.543.436a7.18 7.18 0 0 1-1.561.2M32.485 13.744c-1.064 0-2.038.193-2.896.573a6.76 6.76 0 0 0-2.207 1.543 6.595 6.595 0 0 0-1.387 2.286 8.25 8.25 0 0 0-.477 2.816c0 .997.16 1.944.478 2.816.313.87.78 1.64 1.386 2.286a6.715 6.715 0 0 0 2.207 1.544c.858.38 1.832.573 2.896.573 1.064 0 2.038-.193 2.896-.573.86-.38 1.603-.9 2.207-1.544a6.592 6.592 0 0 0 1.388-2.286c.315-.872.476-1.82.476-2.816 0-.995-.16-1.942-.477-2.814a6.562 6.562 0 0 0-1.387-2.288 6.743 6.743 0 0 0-2.207-1.543c-.857-.38-1.832-.573-2.896-.573m0 16.908c-1.398 0-2.708-.241-3.893-.717a8.886 8.886 0 0 1-3.068-2.017 9.343 9.343 0 0 1-1.99-3.072c-.476-1.176-.717-2.482-.717-3.884 0-1.4.24-2.705.716-3.883a9.355 9.355 0 0 1 1.991-3.072 8.93 8.93 0 0 1 3.068-2.018c1.188-.475 2.498-.717 3.893-.717 1.396 0 2.7.243 3.875.719a9.199 9.199 0 0 1 3.065 2.015 9.207 9.207 0 0 1 2.013 3.073c.476 1.178.716 2.485.716 3.883 0 1.4-.24 2.706-.716 3.884a9.185 9.185 0 0 1-2.012 3.074 9.157 9.157 0 0 1-3.066 2.014c-1.174.477-2.478.718-3.875.718m13.41-.512h2.702V.528h-2.702z" fill="#231F1F"/><path d="M55.654 6.813c-.492 0-.912-.17-1.25-.508a1.71 1.71 0 0 1-.508-1.252c0-.494.171-.915.508-1.253.338-.338.759-.51 1.25-.51s.912.172 1.25.51c.337.339.508.76.508 1.253 0 .493-.171.914-.509 1.252a1.702 1.702 0 0 1-1.25.508zm-1.449 23.424h2.896v-18.3h-2.896v18.3z" fill="#004D99"/><path d="M77.643 6.813c-.492 0-.913-.17-1.25-.508a1.71 1.71 0 0 1-.508-1.252c0-.494.171-.915.508-1.253.338-.338.758-.51 1.25-.51.491 0 .912.172 1.25.51.336.339.507.76.507 1.253 0 .493-.17.914-.508 1.252a1.702 1.702 0 0 1-1.25.508zm-1.449 23.424h2.896v-18.3h-2.896v18.3z" fill="#C00"/><path d="M107.455 30.656c-2.492 0-4.693-1.607-5.353-3.908l2.258-.639c.375 1.304 1.647 2.214 3.095 2.214 1.731 0 3.037-1.188 3.037-2.762 0-.989-.36-2.267-3.176-3.381-3.968-1.57-4.8-3.847-4.8-5.48 0-2.918 2.224-5.12 5.175-5.12 2.213 0 3.918.961 4.929 2.78l-2.056 1.127c-.589-1.06-1.529-1.574-2.873-1.574-1.666 0-2.827 1.147-2.827 2.787 0 1.651 1.806 2.713 3.321 3.312 3.09 1.223 4.656 3.09 4.656 5.549 0 2.857-2.366 5.095-5.386 5.095" fill="#231F1F"/></g></svg>