<svg xmlns="http://www.w3.org/2000/svg" viewBox="0 0 87.38 19.38"><path data-name="&lt;Compound Path&gt;" d="M13.43 13.88c-.14 3.43-2.43 5.5-6.11 5.5h-.11v-.11a3.45 3.45 0 0 0 3.57-3.7c0-2.43-1.8-3.4-5.25-4.42C1.46 10-.2 7.77 0 4.9a5 5 0 0 1 1.48-3.07A6.15 6.15 0 0 1 5.71 0h.45v.2h-.22C3.72.2 2.42 1.5 2.42 3.4S3.8 6.3 7.2 7.33c2.96.88 6.36 2.82 6.23 6.55zM.24 19.38V12h.14c0 3.9 3.32 7.3 6.19 7.3v.11H.24zM13.12 0v6.89h-.22A6.47 6.47 0 0 0 7 .2V0h6.14zm2.7 0h5.61v.17C18.56.17 16 3.24 16 6.83h-.18V0zM22 0h4v17.5c0 1 1.05 1.69 2.29 1.69v.19h-8.71v-.19c1.41 0 2.4-.72 2.4-1.69V0zm10.3 0v6.8h-.2c0-3.51-2.43-6.66-5.61-6.66V0h5.81zm23.2 0h8.42v.19a2.14 2.14 0 0 0-2.24 2v17.19H55.5v-.19a1.91 1.91 0 0 0 2.1-1.69V2.19a2.08 2.08 0 0 0-2.1-2V0zm14.93 19.38V12h-.2a7.2 7.2 0 0 1-7 7.17v.22h7.23zm1.94-.11a2.46 2.46 0 0 0 2.21-2.65V2.13a2.1 2.1 0 0 0-2.21-2V0h6.33v19.38h-6.33v-.11zm6.83-9.84v-.19a4.21 4.21 0 0 0 4.15-4.15h.17v8.49h-.18a4.21 4.21 0 0 0-4.15-4.15zm7.55-3h.17V0h-7v.14c3.64 0 6.82 3.04 6.82 6.33zm.4 5.57h.22v7.41h-7.43v-.14A7.42 7.42 0 0 0 87.15 12zm-39.22 7.24v.14h-8.25v-.14a1.92 1.92 0 0 0 2-1.88v-6l-5.81-10A2.53 2.53 0 0 0 33.76.14V0h7.94v.14c-1.3 0-1.8.89-1.22 1.8l5.34 8.55v6.87a1.9 1.9 0 0 0 2.11 1.88zM47.71 5l-.22 1c-.08.3-.22.55-.3.8h.21C50.14 1.36 51.69.17 54 .17V0H43.89v.17c2.71 0 4.68 1.05 3.82 4.83z" fill="#fff"/></svg>